SplineFontDB: 3.0
FontName: BetecknaLowerCaseItalicCondensed
FullName: BetecknaLowerCase
FamilyName: BetecknaLowerCase
Weight: Medium
Copyright: Drawn by Johan Mattsson
Version: 
ItalicAngle: 0
UnderlinePosition: -200
UnderlineWidth: 50
Ascent: 800
Descent: 200
LayerCount: 2
Layer: 0 1 "Back"  1
Layer: 1 1 "Fore"  0
XUID: [1021 880 1988980000 3066022]
FSType: 0
OS2Version: 3
OS2_WeightWidthSlopeOnly: 0
OS2_UseTypoMetrics: 1
CreationTime: 1176121501
ModificationTime: 1406153154
PfmFamily: 17
TTFWeight: 500
TTFWidth: 5
LineGap: 90
VLineGap: 0
Panose: 2 0 6 3 0 0 0 0 0 0
OS2TypoAscent: 0
OS2TypoAOffset: 1
OS2TypoDescent: 0
OS2TypoDOffset: 1
OS2TypoLinegap: 0
OS2WinAscent: 0
OS2WinAOffset: 1
OS2WinDescent: 0
OS2WinDOffset: 1
HheadAscent: 0
HheadAOffset: 1
HheadDescent: 0
HheadDOffset: 1
OS2SubXSize: 650
OS2SubYSize: 699
OS2SubXOff: 0
OS2SubYOff: 479
OS2SupXSize: 650
OS2SupYSize: 699
OS2SupXOff: 0
OS2SupYOff: 0
OS2StrikeYSize: 49
OS2StrikeYPos: 258
OS2Vendor: 'PfEd'
OS2CodePages: 00000010.01140000
OS2UnicodeRanges: 800000cf.40000000.00000000.00000000
Lookup: 4 0 1 "'liga' Standard Ligatures in Latin lookup 0"  {"'liga' Standard Ligatures in Latin lookup 0 subtable"  } ['liga' ('latn' <'dflt' > ) ]
Lookup: 258 0 0 "'kern' Horizontal Kerning in Latin lookup 0"  {"'kern' Horizontal Kerning in Latin lookup 0 subtable"  } ['kern' ('latn' <'dflt' > ) ]
DEI: 91125
ShortTable: maxp 16
  1
  0
  182
  92
  5
  70
  4
  2
  0
  1
  1
  0
  64
  0
  2
  1
EndShort
LangName: 1033 "" "" "" "FontForge 2.0 : BetecknaLowerCase : 4-10-2008" 
GaspTable: 1 65535 2 0
Encoding: UnicodeBmp
UnicodeInterp: none
NameList: Adobe Glyph List
DisplaySize: -72
AntiAlias: 1
FitToEm: 1
Grid
-1000 142 m 0
 2000 142 l 0
EndSplineSet
BeginChars: 65539 190

StartChar: .notdef
Encoding: 65536 -1 0
Width: 449
Flags: W
LayerCount: 2
Fore
SplineSet
52.4072 0 m 1,0,-1
 127.593 533 l 1,1,-1
 447.593 533 l 1,2,-1
 372.407 0 l 1,3,-1
 52.4072 0 l 1,0,-1
99.46 50 m 1,4,-1
 339.46 50 l 1,5,-1
 400.54 483 l 1,6,-1
 160.54 483 l 1,7,-1
 99.46 50 l 1,4,-1
EndSplineSet
EndChar

StartChar: exclam
Encoding: 33 33 4
Width: 213
GlyphClass: 2
Flags: W
LayerCount: 2
Fore
SplineSet
130.815 693 m 5,0,-1
 202.815 693 l 5,1,-1
 136.606 252 l 5,2,-1
 63.8066 252 l 5,3,-1
 130.815 693 l 5,0,-1
25.5225 60 m 4,4,5
 29.3311 87 29.3311 87 45.918 102.5 c 132,-1,6
 62.5039 118 62.5039 118 80.1748 118.5 c 132,-1,7
 97.8457 119 97.8457 119 110.129 104 c 132,-1,8
 122.414 89 122.414 89 118.604 62 c 4,9,10
 114.515 33 114.515 33 97.7871 16.5 c 132,-1,11
 81.0586 0 81.0586 0 63.459 0 c 132,-1,12
 45.8584 0 45.8584 0 33.7158 16 c 132,-1,13
 21.5732 32 21.5732 32 25.5225 60 c 4,4,5
EndSplineSet
EndChar

StartChar: quotedbl
Encoding: 34 34 5
Width: 307
GlyphClass: 2
Flags: W
LayerCount: 2
Fore
SplineSet
219.947 558 m 1,0,1
 219.382 571 219.382 571 208.881 627 c 128,-1,2
 198.381 683 198.381 683 201.438 699 c 0,3,4
 205.105 725 205.105 725 221.222 740 c 128,-1,5
 237.337 755 237.337 755 254.607 755.5 c 128,-1,6
 271.878 756 271.878 756 284.092 740.5 c 128,-1,7
 296.306 725 296.306 725 292.215 696 c 1,8,9
 285.629 672 285.629 672 275.185 649 c 128,-1,10
 264.739 626 264.739 626 257.918 614.5 c 128,-1,11
 251.096 603 251.096 603 237.074 583 c 128,-1,12
 223.054 563 223.054 563 219.947 558 c 1,0,1
80.748 558 m 1,13,14
 80.1816 571 80.1816 571 69.6816 627 c 128,-1,15
 59.1807 683 59.1807 683 62.2373 699 c 0,16,17
 65.9053 725 65.9053 725 82.0215 740 c 128,-1,18
 98.1367 755 98.1367 755 115.408 755.5 c 128,-1,19
 132.678 756 132.678 756 144.892 740.5 c 128,-1,20
 157.105 725 157.105 725 153.015 696 c 1,21,22
 146.43 672 146.43 672 135.984 649 c 128,-1,23
 125.54 626 125.54 626 118.718 614.5 c 128,-1,24
 111.896 603 111.896 603 97.874 583 c 128,-1,25
 83.8535 563 83.8535 563 80.748 558 c 1,13,14
EndSplineSet
EndChar

StartChar: numbersign
Encoding: 35 35 6
Width: 409
GlyphClass: 2
Flags: W
LayerCount: 2
Fore
SplineSet
168.469 620 m 1,0,-1
 230.068 620 l 1,1,-1
 210.319 480 l 1,2,-1
 282.319 480 l 1,3,-1
 302.068 620 l 1,4,-1
 364.469 620 l 1,5,-1
 344.72 480 l 1,6,-1
 391.119 480 l 1,7,-1
 378.283 389 l 1,8,-1
 331.884 389 l 1,9,-1
 320.175 306 l 1,10,-1
 366.574 306 l 1,11,-1
 354.303 219 l 1,12,-1
 307.902 219 l 1,13,-1
 286.885 70 l 1,14,-1
 224.484 70 l 1,15,-1
 245.503 219 l 1,16,-1
 173.503 219 l 1,17,-1
 152.484 70 l 1,18,-1
 90.8838 70 l 1,19,-1
 111.903 219 l 1,20,-1
 65.6436 220 l 1,21,-1
 77.7744 306 l 1,22,-1
 124.175 306 l 1,23,-1
 136.024 390 l 1,24,-1
 89.624 390 l 1,25,-1
 102.461 481 l 1,26,-1
 148.72 480 l 1,27,-1
 168.469 620 l 1,0,-1
197.624 390 m 1,28,-1
 185.774 306 l 1,29,-1
 257.774 306 l 1,30,-1
 269.483 389 l 1,31,-1
 197.624 390 l 1,28,-1
EndSplineSet
EndChar

StartChar: dollar
Encoding: 36 36 7
Width: 654
GlyphClass: 2
Flags: W
LayerCount: 2
Fore
SplineSet
296.815 28.0088 m 5,23,24
 293.614 28 l 0,28,29
 265.756 29 265.756 29 236.765 47.5 c 128,-1,30
 207.774 66 207.774 66 194.291 81 c 128,-1,31
 180.806 96 180.806 96 169.322 111 c 1,32,-1
 211.056 180 l 1,33,34
 227.012 157 227.012 157 238.448 144.5 c 128,-1,35
 249.885 132 249.885 132 270.992 120 c 128,-1,36
 292.099 108 292.099 108 317.698 108 c 0,37,38
 354.499 108 354.499 108 371.181 118.5 c 0,39,40
 390.518 130.672 390.518 130.672 417.269 173 c 0,40,41
 445.074 217 445.074 217 435.61 260.5 c 0,42,43
 426.889 300.592 426.889 300.592 390.145 321 c 0,43,44
 340.357 348.653 340.357 348.653 337.436 350 c 0,45,46
 293.018 370.484 293.018 370.484 272.466 397 c 0,47,48
 248.438 428 248.438 428 242.646 463.5 c 128,-1,48
 236.854 499 236.854 499 244.614 537 c 128,-1,49
 252.375 575 252.375 575 271.947 606 c 128,-1,50
 291.521 637 291.521 637 322.483 658 c 128,-1,51
 353.445 679 353.445 679 389.868 682 c 1,52,-1
 389.061 750 l 1,0,-1
 449.061 750 l 1,1,-1
 429.868 682 l 1,2,3
 482.904 678 482.904 678 515.144 640 c 1,4,-1
 473.598 578 l 1,5,6
 442.564 618.753 442.564 618.753 385.312 610 c 0,7,8
 359.147 606 359.147 606 338.844 584 c 128,-1,9
 318.541 562 318.541 562 311.862 534.5 c 128,-1,10
 305.183 507 305.183 507 318.551 477 c 0,11,12
 333.052 444.457 333.052 444.457 366.98 429 c 2,12,-1
 421.854 404 l 2,13,14
 442.83 394.444 442.83 394.444 464.587 369.5 c 0,15,16
 484.213 347 484.213 347 497.417 313 c 128,-1,16
 510.621 279 510.621 279 506.696 237 c 0,17,18
 502.442 191.479 502.442 191.479 478.636 143 c 0,18,19
 431.494 47 431.494 47 345.237 31 c 1,20,-1
 343.032 -30 l 1,21,-1
 283.032 -30 l 1,22,-1
 296.815 28.0088 l 5,23,24
EndSplineSet
EndChar

StartChar: percent
Encoding: 37 37 8
Width: 502
GlyphClass: 2
Flags: W
LayerCount: 2
Fore
SplineSet
162.919 473 m 0,0,1
 159.11 446 159.11 446 174.289 434.5 c 128,-1,2
 189.467 423 189.467 423 207.488 434.5 c 128,-1,3
 225.511 446 225.511 446 229.461 474 c 0,4,5
 232.281 494 232.281 494 223.362 504.5 c 128,-1,6
 214.444 515 214.444 515 202.044 515 c 128,-1,7
 189.644 515 189.644 515 177.622 503.5 c 128,-1,8
 165.6 492 165.6 492 162.919 473 c 0,0,1
109.179 472 m 0,9,10
 113.975 506 113.975 506 130.159 530 c 128,-1,11
 146.346 554 146.346 554 167.285 563.5 c 128,-1,12
 188.226 573 188.226 573 210.885 572 c 128,-1,13
 233.543 571 233.543 571 251.451 559 c 128,-1,14
 269.358 547 269.358 547 278.771 523 c 128,-1,15
 288.188 499 288.188 499 283.955 469 c 0,16,17
 279.44 437 279.44 437 263.114 412 c 128,-1,18
 246.788 387 246.788 387 225.565 375.5 c 128,-1,19
 204.344 364 204.344 364 181.473 363.5 c 128,-1,20
 158.603 363 158.603 363 140.555 374 c 128,-1,21
 122.506 385 122.506 385 113.304 410.5 c 128,-1,22
 104.101 436 104.101 436 109.179 472 c 0,9,10
330.108 161 m 0,23,24
 326.299 134 326.299 134 341.548 123 c 128,-1,25
 356.796 112 356.796 112 374.818 123.5 c 128,-1,26
 392.841 135 392.841 135 396.649 162 c 0,27,28
 400.316 188 400.316 188 385.397 198.5 c 128,-1,29
 370.479 209 370.479 209 352.128 198 c 128,-1,30
 333.776 187 333.776 187 330.108 161 c 0,23,24
276.367 160 m 0,31,32
 281.304 195 281.304 195 297.891 219 c 128,-1,33
 314.476 243 314.476 243 335.016 252.5 c 128,-1,34
 355.556 262 355.556 262 378.144 260.5 c 128,-1,35
 400.732 259 400.732 259 418.639 247 c 128,-1,36
 436.546 235 436.546 235 446.432 211.5 c 128,-1,37
 456.316 188 456.316 188 451.944 157 c 0,38,39
 447.43 125 447.43 125 430.773 100.5 c 128,-1,40
 414.118 76 414.118 76 392.825 64 c 128,-1,41
 371.532 52 371.532 52 348.661 51.5 c 128,-1,42
 325.792 51 325.792 51 308.144 62 c 128,-1,43
 290.495 73 290.495 73 280.892 98.5 c 128,-1,44
 271.289 124 271.289 124 276.367 160 c 0,31,32
459.051 559 m 1,45,-1
 496.329 500 l 1,46,-1
 86.7324 52 l 1,47,-1
 49.4551 111 l 1,48,-1
 459.051 559 l 1,45,-1
EndSplineSet
EndChar

StartChar: ampersand
Encoding: 38 38 9
Width: 670
GlyphClass: 2
Flags: W
LayerCount: 2
Fore
SplineSet
320.593 410 m 2,0,-1
 458.877 188 l 1,1,2
 500.421 267 500.421 267 507.565 346 c 1,3,-1
 573.965 346 l 1,4,5
 552.944 214 552.944 214 497.99 125 c 1,6,-1
 574.758 0 l 1,7,-1
 480.357 0 l 1,8,-1
 444.397 57 l 1,9,10
 376.547 -10 376.547 -10 278.854 -22 c 0,11,12
 236.689 -26 236.689 -26 196.759 -8.5 c 128,-1,13
 156.827 9 156.827 9 128.352 51 c 128,-1,14
 99.876 93 99.876 93 95.1162 150 c 0,15,16
 95.1123 184 95.1123 184 99.1328 212.5 c 128,-1,17
 103.153 241 103.153 241 115.103 269 c 128,-1,18
 127.053 297 127.053 297 140.085 318.5 c 128,-1,19
 153.118 340 153.118 340 170.41 360.5 c 128,-1,20
 187.702 381 187.702 381 202.076 395 c 128,-1,21
 216.451 409 216.451 409 230.944 421 c 1,22,23
 219.928 462 219.928 462 222.959 500.5 c 128,-1,24
 225.99 539 225.99 539 239.681 568 c 128,-1,25
 253.371 597 253.371 597 268.122 616.5 c 128,-1,26
 282.872 636 282.872 636 298.447 650 c 0,27,28
 330.256 677 330.256 677 375.433 682.5 c 128,-1,29
 420.607 688 420.607 688 456.681 671.5 c 128,-1,30
 492.753 655 492.753 655 500.379 624 c 1,31,-1
 449.044 572 l 1,32,33
 435.959 604 435.959 604 392.052 607.5 c 128,-1,34
 348.146 611 348.146 611 318.69 578 c 0,35,36
 259.594 505 259.594 505 320.593 410 c 2,0,-1
259.234 355 m 1,37,38
 216.133 316 216.133 316 189.221 267 c 128,-1,39
 162.309 218 162.309 218 168.338 170 c 0,40,41
 173.237 131 173.237 131 198.416 102.5 c 128,-1,42
 223.597 74 223.597 74 251.244 63 c 128,-1,43
 278.893 52 278.893 52 300.115 55 c 0,44,45
 358.703 62 358.703 62 408.72 116 c 1,46,-1
 259.234 355 l 1,37,38
EndSplineSet
EndChar

StartChar: quotesingle
Encoding: 39 39 10
Width: 139
GlyphClass: 2
Flags: W
LayerCount: 2
Fore
SplineSet
61.7314 558 m 1,0,1
 29.957 639 29.957 639 38.4209 699 c 0,2,3
 42.0879 725 42.0879 725 58.2744 740.5 c 128,-1,4
 74.4609 756 74.4609 756 91.4023 757 c 128,-1,5
 108.344 758 108.344 758 120.227 743 c 128,-1,6
 132.111 728 132.111 728 128.021 699 c 0,7,8
 123.225 665 123.225 665 102.382 625 c 128,-1,9
 81.54 585 81.54 585 61.7314 558 c 1,0,1
EndSplineSet
EndChar

StartChar: parenleft
Encoding: 40 40 11
Width: 246
GlyphClass: 2
Flags: W
LayerCount: 2
Fore
SplineSet
39.543 148 m 0,0,1
 40.2949 159 40.2949 159 63.9229 326.5 c 128,-1,2
 87.5508 494 87.5508 494 89.4785 502 c 0,3,4
 109.044 601 109.044 601 159.647 670.5 c 128,-1,5
 210.252 740 210.252 740 279.188 775 c 1,6,-1
 264.659 672 l 1,7,8
 189.937 613 189.937 613 165.103 505 c 0,9,10
 163.174 497 163.174 497 139.334 328 c 128,-1,11
 115.494 159 115.494 159 114.743 148 c 0,12,13
 110.427 38 110.427 38 165.681 -24 c 1,14,-1
 149.882 -136 l 1,15,16
 92.8418 -98 92.8418 -98 62.5986 -26 c 128,-1,17
 32.3545 46 32.3545 46 39.543 148 c 0,0,1
EndSplineSet
EndChar

StartChar: parenright
Encoding: 41 41 12
Width: 260
GlyphClass: 2
Flags: W
LayerCount: 2
Fore
SplineSet
194.211 150 m 0,0,1
 171.963 49 171.963 49 121.337 -23.5 c 128,-1,2
 70.709 -96 70.709 -96 2.94922 -134 c 1,3,-1
 18.748 -22 l 1,4,5
 91.6348 41 91.6348 41 118.211 150 c 0,6,7
 120.562 161 120.562 161 144.401 330 c 128,-1,8
 168.241 499 168.241 499 168.569 507 c 0,9,10
 175.005 615 175.005 615 117.067 675 c 1,11,-1
 131.598 778 l 1,12,13
 190.52 742 190.52 742 221.187 673 c 128,-1,14
 251.854 604 251.854 604 244.288 505 c 0,15,16
 243.159 497 243.159 497 219.461 329 c 128,-1,17
 195.762 161 195.762 161 194.211 150 c 0,0,1
EndSplineSet
EndChar

StartChar: asterisk
Encoding: 42 42 13
Width: 190
GlyphClass: 2
Flags: W
LayerCount: 2
Fore
SplineSet
159.571 678 m 1,0,-1
 137.172 678 l 2,1,2
 127.571 678 127.571 678 135.479 666 c 2,3,-1
 156.564 634 l 1,4,-1
 146.167 617 l 1,5,-1
 131.674 605 l 1,6,-1
 104.517 645 l 1,7,8
 101.598 647 l 1,9,10
 97.3164 645 l 1,11,-1
 59.6738 605 l 1,12,-1
 46.9668 617 l 1,13,-1
 42.165 634 l 1,14,-1
 73.8789 666 l 2,15,16
 78.4424 670 78.4424 670 77.0781 674.5 c 128,-1,17
 75.7119 679 75.7119 679 71.5713 678 c 1,18,-1
 49.9717 678 l 1,19,-1
 48.793 698 l 1,20,-1
 55.332 716 l 1,21,-1
 83.1904 715 l 2,22,23
 85.5908 715 85.5908 715 90.9072 721.5 c 128,-1,24
 96.2246 728 96.2246 728 96.9297 733 c 2,25,-1
 100.033 755 l 1,26,-1
 116.598 759 l 1,27,-1
 132.033 755 l 1,28,-1
 128.93 733 l 2,29,30
 128.084 727 128.084 727 132.178 722 c 128,-1,31
 136.273 717 136.273 717 139.474 717 c 2,32,-1
 164.932 716 l 1,33,-1
 167.192 698 l 1,34,-1
 159.571 678 l 1,0,-1
EndSplineSet
EndChar

StartChar: plus
Encoding: 43 43 14
Width: 445
GlyphClass: 2
Flags: W
LayerCount: 2
Fore
SplineSet
389.062 316 m 1,0,-1
 280.122 315 l 1,1,-1
 258.257 160 l 1,2,-1
 186.257 160 l 1,3,-1
 207.322 315 l 1,4,-1
 95.1807 314 l 1,5,-1
 108.018 405 l 1,6,-1
 222.136 403 l 1,7,-1
 240.331 549 l 1,8,-1
 312.331 549 l 1,9,-1
 292.018 405 l 1,10,-1
 401.759 406 l 1,11,-1
 389.062 316 l 1,0,-1
EndSplineSet
EndChar

StartChar: comma
Encoding: 44 44 15
Width: 139
GlyphClass: 2
Flags: W
LayerCount: 2
Fore
SplineSet
37.1387 69 m 0,0,1
 40.8066 95 40.8066 95 56.9219 110 c 128,-1,2
 73.0381 125 73.0381 125 90.3086 125.5 c 128,-1,3
 107.579 126 107.579 126 119.793 110.5 c 128,-1,4
 132.006 95 132.006 95 127.916 66 c 0,5,6
 125.095 46 125.095 46 115.284 27.5 c 128,-1,7
 105.475 9 105.475 9 97.5234 -2 c 128,-1,8
 89.5723 -13 89.5723 -13 72.7969 -27 c 128,-1,9
 56.0215 -41 56.0215 -41 52.54 -43 c 128,-1,10
 49.0576 -45 49.0576 -45 34.8467 -55 c 1,11,12
 39.6934 -49 39.6934 -49 45.9746 -38.5 c 128,-1,13
 52.2559 -28 52.2559 -28 58.4189 -15.5 c 128,-1,14
 64.582 -3 64.582 -3 68.4629 7.5 c 128,-1,15
 72.3447 18 72.3447 18 72.3906 24 c 128,-1,16
 72.4375 30 72.4375 30 66.5557 28 c 0,17,18
 52.25 23 52.25 23 42.8838 36 c 128,-1,19
 33.5176 49 33.5176 49 37.1387 69 c 0,0,1
EndSplineSet
EndChar

StartChar: hyphen
Encoding: 45 45 16
Width: 424
GlyphClass: 2
Flags: W
LayerCount: 2
Fore
SplineSet
392.683 217 m 1,0,-1
 81.4824 217 l 1,1,-1
 94.1777 307 l 1,2,-1
 405.518 308 l 1,3,-1
 392.683 217 l 1,0,-1
EndSplineSet
EndChar

StartChar: period
Encoding: 46 46 17
Width: 166
GlyphClass: 2
Flags: W
LayerCount: 2
Fore
SplineSet
26.7578 60 m 0,0,1
 30.5664 87 30.5664 87 47.1533 102.5 c 128,-1,2
 63.7393 118 63.7393 118 81.4102 118.5 c 128,-1,3
 99.0801 119 99.0801 119 111.365 104 c 128,-1,4
 123.648 89 123.648 89 119.839 62 c 0,5,6
 115.749 33 115.749 33 99.0215 16.5 c 128,-1,7
 82.2939 0 82.2939 0 64.6934 0 c 128,-1,8
 47.0938 0 47.0938 0 34.9502 16 c 128,-1,9
 22.8076 32 22.8076 32 26.7578 60 c 0,0,1
EndSplineSet
EndChar

StartChar: slash
Encoding: 47 47 18
Width: 449
GlyphClass: 2
Flags: W
LayerCount: 2
Fore
SplineSet
136.347 0 m 1,0,-1
 50.7461 0 l 1,1,-1
 368.972 702 l 1,2,-1
 449.254 704 l 1,3,-1
 136.347 0 l 1,0,-1
EndSplineSet
EndChar

StartChar: zero
Encoding: 48 48 19
Width: 512
GlyphClass: 2
Flags: W
LayerCount: 2
Fore
SplineSet
158.09 367 m 0,0,1
 139.329 234 139.329 234 165.643 171 c 0,2,3
 192.614 107 192.614 107 247.438 101.5 c 128,-1,4
 302.263 96 302.263 96 346.585 155 c 0,5,6
 394.954 220 394.954 220 414.702 360 c 0,7,8
 434.733 502 434.733 502 398.021 565 c 0,9,10
 377.358 600 377.358 600 343.567 610 c 128,-1,11
 309.779 620 309.779 620 273.429 600.5 c 128,-1,12
 237.077 581 237.077 581 208.988 535 c 0,13,14
 173.606 477 173.606 477 158.09 367 c 0,0,1
83.6436 361 m 0,15,16
 103.815 504 103.815 504 158.865 588 c 0,17,18
 201.775 654 201.775 654 259.796 682.5 c 128,-1,19
 317.815 711 317.815 711 371.369 696.5 c 128,-1,20
 424.925 682 424.925 682 458.248 629 c 0,21,22
 514.494 540 514.494 540 488.82 358 c 0,23,24
 466.111 180 466.111 180 398.733 88 c 0,25,26
 353.047 25 353.047 25 294.297 5.5 c 128,-1,27
 235.545 -14 235.545 -14 183.143 11.5 c 128,-1,28
 130.74 37 130.74 37 101.368 101 c 0,29,30
 59.8047 192 59.8047 192 83.6436 361 c 0,15,16
EndSplineSet
EndChar

StartChar: one
Encoding: 49 49 20
Width: 356
GlyphClass: 2
Flags: W
LayerCount: 2
Fore
SplineSet
213.734 600 m 1,0,-1
 122.534 600 l 1,2,-1
 138.662 720 l 5,3,-1
 308.262 720 l 1,4,-1
 292.84 605 l 1,6,-1
 219.3 78 l 1,7,-1
 220.1 78 l 1,8,-1
 209.098 0 l 1,9,-1
 131.497 0 l 1,10,-1
 141.699 78 l 1,11,-1
 140.899 78 l 1,12,-1
 213.734 600 l 1,0,-1
EndSplineSet
EndChar

StartChar: two
Encoding: 50 50 21
Width: 480
GlyphClass: 2
Flags: W
LayerCount: 2
Fore
SplineSet
27.9434 0 m 1,0,-1
 327.004 396 l 2,1,2
 379.889 476 379.889 476 380.635 538 c 128,-1,3
 381.38 600 381.38 600 330.696 615 c 0,4,5
 303.824 623 303.824 623 266.485 605 c 128,-1,6
 229.146 587 229.146 587 212.163 546 c 1,7,-1
 156.815 596 l 5,8,9
 214.592 705 214.592 705 325.368 702 c 0,10,11
 405.886 700 405.886 700 438.34 646.5 c 128,-1,12
 470.792 593 470.792 593 449.579 505 c 128,-1,13
 428.366 417 428.366 417 357.741 319 c 2,14,-1
 187.839 90 l 1,15,-1
 407.18 91 l 1,16,-1
 394.343 0 l 1,17,-1
 107.802 -1 l 1,18,-1
 107.943 0 l 1,19,-1
 27.9434 0 l 1,0,-1
EndSplineSet
EndChar

StartChar: three
Encoding: 51 51 22
Width: 454
GlyphClass: 2
Flags: W
LayerCount: 2
Fore
SplineSet
283.235 414 m 2,0,1
 319.422 421 319.422 421 344.617 472 c 128,-1,2
 369.811 523 369.811 523 358.559 568 c 0,3,4
 348.201 608 348.201 608 306.693 620 c 0,5,6
 278.081 627 278.081 627 242.671 617 c 128,-1,7
 207.26 607 207.26 607 186.323 572 c 1,8,-1
 132.293 620 l 1,9,10
 193.885 705 193.885 705 307.061 702 c 0,11,12
 358.921 701 358.921 701 392.547 670 c 128,-1,13
 426.174 639 426.174 639 435.355 593.5 c 128,-1,14
 444.537 548 444.537 548 428.379 493 c 128,-1,15
 412.222 438 412.222 438 371.19 391 c 1,16,17
 398.585 347 398.585 347 408.543 298.5 c 128,-1,18
 418.501 250 418.501 250 411.564 206.5 c 128,-1,19
 404.629 163 404.629 163 384.587 123 c 128,-1,20
 364.544 83 364.544 83 334.923 54.5 c 128,-1,21
 305.303 26 305.303 26 267.705 9 c 128,-1,22
 230.107 -8 230.107 -8 190.907 -8 c 0,23,24
 103.143 -12 103.143 -12 27.043 44 c 1,25,-1
 83.0352 112 l 1,26,27
 109.437 95 109.437 95 132.309 87 c 128,-1,28
 155.18 79 155.18 79 171.18 79 c 128,-1,29
 187.18 79 187.18 79 206.521 80 c 0,30,31
 240.921 80 240.921 80 269.954 101.5 c 128,-1,32
 298.987 123 298.987 123 313.642 156 c 128,-1,33
 328.297 189 328.297 189 332.504 224.5 c 128,-1,34
 336.712 260 336.712 260 322.614 290.5 c 128,-1,35
 308.517 321 308.517 321 279.151 334 c 1,36,-1
 206.351 334 l 1,37,-1
 214.953 412 l 1,38,-1
 283.235 414 l 2,0,1
EndSplineSet
EndChar

StartChar: four
Encoding: 52 52 23
Width: 427
GlyphClass: 2
Flags: W
LayerCount: 2
Fore
SplineSet
284.511 243 m 1,0,-1
 322.315 511 l 1,1,-1
 141.311 243 l 1,2,-1
 284.511 243 l 1,0,-1
428.08 722 m 1,3,-1
 360.652 244 l 1,4,-1
 397.452 244 l 1,5,-1
 384.662 159 l 1,6,-1
 351.062 159 l 1,7,-1
 328.633 0 l 1,8,-1
 248.633 0 l 1,9,-1
 271.485 162 l 1,10,-1
 117.085 162 l 1,11,-1
 31.4854 162 l 1,12,-1
 37.5508 205 l 1,13,-1
 394.479 722 l 1,14,-1
 428.08 722 l 1,3,-1
EndSplineSet
EndChar

StartChar: five
Encoding: 53 53 24
Width: 451
GlyphClass: 2
Flags: W
LayerCount: 2
Fore
SplineSet
182.439 700 m 1,0,-1
 416.039 700 l 1,1,-1
 406.354 620 l 1,2,-1
 245.555 620 l 1,3,-1
 215.224 422 l 1,4,5
 273.906 424 273.906 424 305.978 416 c 128,-1,6
 338.049 408 338.049 408 367.559 379 c 0,7,8
 392.313 356 392.313 356 403.024 318.5 c 128,-1,9
 413.734 281 413.734 281 411.08 239.5 c 128,-1,10
 408.427 198 408.427 198 392.102 156 c 128,-1,11
 375.777 114 375.777 114 349.381 80 c 128,-1,12
 322.985 46 322.985 46 282.423 25 c 128,-1,13
 241.86 4 241.86 4 194.66 4 c 0,14,15
 148.638 1 148.638 1 104.399 22 c 128,-1,16
 60.1611 43 60.1611 43 29.1934 73 c 1,17,-1
 76.3398 135 l 1,18,19
 112.907 105 112.907 105 137.285 93.5 c 128,-1,20
 161.663 82 161.663 82 202.463 82 c 0,21,22
 241.005 83 241.005 83 272.413 110 c 128,-1,23
 303.821 137 303.821 137 318.971 173.5 c 128,-1,24
 334.118 210 334.118 210 333.55 248.5 c 128,-1,25
 332.98 287 332.98 287 313.825 310 c 0,26,27
 279.985 348 279.985 348 226.149 352 c 2,28,-1
 131.985 348 l 1,29,-1
 182.439 700 l 1,0,-1
EndSplineSet
EndChar

StartChar: six
Encoding: 54 54 25
Width: 526
GlyphClass: 2
Flags: W
LayerCount: 2
Fore
SplineSet
79.1885 256 m 0,0,1
 78.3867 273 78.3867 273 82.1943 308.5 c 128,-1,2
 86.002 344 86.002 344 90.751 380.5 c 128,-1,3
 95.5 417 95.5 417 112.012 466 c 128,-1,4
 128.523 515 128.523 515 154.071 560 c 0,5,6
 190.3 624 190.3 624 245.801 663 c 128,-1,7
 301.302 702 301.302 702 356.502 702 c 0,8,9
 425.443 703 425.443 703 456.176 677 c 1,10,-1
 415.996 602 l 1,11,12
 410.065 611 410.065 611 389.452 618 c 128,-1,13
 368.841 625 368.841 625 335.335 620 c 0,14,15
 297.83 615 297.83 615 266.704 590 c 128,-1,16
 235.577 565 235.577 565 215.157 528 c 128,-1,17
 194.738 491 194.738 491 182.366 451.5 c 128,-1,18
 169.994 412 169.994 412 164.07 370 c 1,19,20
 163.695 356 163.695 356 164.071 353 c 1,21,22
 199.455 394 199.455 394 236.748 414.5 c 128,-1,23
 274.039 435 274.039 435 301.19 437.5 c 128,-1,24
 328.345 440 328.345 440 356.016 432 c 128,-1,25
 383.687 424 383.687 424 395.829 416.5 c 128,-1,26
 407.971 409 407.971 409 418.701 400 c 0,27,28
 443.881 380 443.881 380 456.639 331.5 c 128,-1,29
 469.397 283 469.397 283 461.075 224 c 0,30,31
 449.789 144 449.789 144 408.572 90 c 0,32,33
 341.101 3 341.101 3 248.959 2 c 0,34,35
 146.559 2 146.559 2 105.747 104 c 0,36,37
 95.5322 128 95.5322 128 86.6094 181 c 128,-1,38
 77.6855 234 77.6855 234 79.1885 256 c 0,0,1
159.757 226 m 0,39,40
 153.55 182 153.55 182 166.637 150 c 128,-1,41
 179.722 118 179.722 118 203.348 104 c 128,-1,42
 226.973 90 226.973 90 257.044 90.5 c 128,-1,43
 287.114 91 287.114 91 315.3 106.5 c 128,-1,44
 343.486 122 343.486 122 365.342 155 c 128,-1,45
 387.196 188 387.196 188 393.545 233 c 0,46,47
 400.456 282 400.456 282 380.899 313.5 c 128,-1,48
 361.344 345 361.344 345 327.178 358 c 0,49,50
 307.741 362 307.741 362 294.988 359.5 c 128,-1,51
 282.235 357 282.235 357 262.049 350 c 0,52,53
 229.155 338 229.155 338 196.783 298.5 c 128,-1,54
 164.412 259 164.412 259 159.757 226 c 0,39,40
EndSplineSet
EndChar

StartChar: seven
Encoding: 55 55 26
Width: 432
GlyphClass: 2
Flags: W
LayerCount: 2
Fore
SplineSet
154.319 691 m 1,0,-1
 446.978 690 l 1,1,-1
 435.13 606 l 1,2,-1
 435.506 603 l 1,3,-1
 131.245 0 l 1,4,-1
 32.8457 0 l 1,5,-1
 343.6 598 l 1,6,-1
 141.2 598 l 1,7,-1
 154.319 691 l 1,0,-1
EndSplineSet
EndChar

StartChar: eight
Encoding: 56 56 27
Width: 495
GlyphClass: 2
Flags: W
LayerCount: 2
Fore
SplineSet
127.431 505 m 0,0,1
 134.061 552 134.061 552 155.256 594.5 c 128,-1,2
 176.45 637 176.45 637 204.636 661 c 0,3,4
 255.502 704 255.502 704 319.172 704.5 c 128,-1,5
 382.842 705 382.842 705 420.541 666 c 0,6,7
 444.355 642 444.355 642 455.349 598 c 128,-1,8
 466.342 554 466.342 554 459.431 505 c 0,9,10
 450.683 460 450.683 460 394.221 383 c 1,11,12
 464.111 317 464.111 317 448.595 207 c 0,13,14
 436.463 121 436.463 121 398.209 71 c 0,15,16
 364.944 28 364.944 28 318.569 5.5 c 128,-1,17
 272.196 -17 272.196 -17 224.196 -17 c 0,18,19
 172.196 -17 172.196 -17 130.663 9 c 128,-1,20
 89.1318 35 89.1318 35 69.5029 83 c 256,21,22
 49.874 131 49.874 131 60.4531 206 c 0,23,24
 75.2646 311 75.2646 311 160.856 379 c 1,25,26
 121.366 445 121.366 445 127.431 505 c 0,0,1
142.1 212 m 0,27,28
 135.893 168 135.893 168 148.508 135.5 c 128,-1,29
 161.124 103 161.124 103 184.679 88.5 c 128,-1,30
 208.233 74 208.233 74 238.162 73.5 c 128,-1,31
 268.092 73 268.092 73 296.137 87.5 c 128,-1,32
 324.183 102 324.183 102 345.568 134.5 c 128,-1,33
 366.952 167 366.952 167 373.3 212 c 0,34,35
 380.211 261 380.211 261 362.796 293.5 c 128,-1,36
 345.38 326 345.38 326 311.873 338 c 0,37,38
 272.342 347 272.342 347 235.591 336 c 0,39,40
 200.298 324 200.298 324 174.585 292 c 128,-1,41
 148.87 260 148.87 260 142.1 212 c 0,27,28
304.899 419 m 0,42,43
 336.568 428 336.568 428 359.178 455 c 128,-1,44
 381.786 482 381.786 482 387.852 525 c 0,45,46
 392.506 558 392.506 558 382.293 582 c 128,-1,47
 372.077 606 372.077 606 352.829 617 c 128,-1,48
 333.581 628 333.581 628 309.91 627.5 c 128,-1,49
 286.24 627 286.24 627 264.289 616 c 128,-1,50
 242.336 605 242.336 605 224.951 581 c 128,-1,51
 207.566 557 207.566 557 202.91 524 c 0,52,53
 196.704 480 196.704 480 212.095 453 c 128,-1,54
 227.486 426 227.486 426 256.758 418 c 0,55,56
 279.534 415 279.534 415 304.899 419 c 0,42,43
EndSplineSet
EndChar

StartChar: nine
Encoding: 57 57 28
Width: 468
GlyphClass: 2
Flags: W
LayerCount: 2
Fore
SplineSet
182.739 501 m 0,0,1
 175.404 449 175.404 449 193.572 419 c 128,-1,2
 211.74 389 211.74 389 240.776 385 c 128,-1,3
 269.812 381 269.812 381 301.786 395 c 128,-1,4
 333.761 409 333.761 409 352.77 436 c 0,5,6
 373.379 463 373.379 463 382.928 508 c 0,7,8
 387.487 546 387.487 546 376.565 573.5 c 128,-1,9
 365.645 601 365.645 601 344.867 612.5 c 128,-1,10
 324.09 624 324.09 624 298.277 622.5 c 128,-1,11
 272.467 621 272.467 621 248.632 608 c 128,-1,12
 224.799 595 224.799 595 206.379 566.5 c 128,-1,13
 187.958 538 187.958 538 182.739 501 c 0,0,1
107.492 495 m 0,14,15
 117.226 564 117.226 564 150.35 614.5 c 128,-1,16
 183.473 665 183.473 665 226.247 687.5 c 128,-1,17
 269.021 710 269.021 710 314.621 710 c 128,-1,18
 360.221 710 360.221 710 395.848 687.5 c 128,-1,19
 431.473 665 431.473 665 449.55 614.5 c 128,-1,20
 467.627 564 467.627 564 457.233 496 c 0,21,22
 439.456 404 439.456 404 376.626 262 c 128,-1,23
 313.795 120 313.795 120 232.067 0 c 1,24,-1
 129.809 1 l 1,25,26
 177.895 64 177.895 64 198.645 92 c 128,-1,27
 219.395 120 219.395 120 253.224 175.5 c 128,-1,28
 287.053 231 287.053 231 310.528 284 c 0,29,30
 312.976 290 312.976 290 317.021 304.5 c 128,-1,31
 321.065 319 321.065 319 322.29 322 c 1,32,33
 287.422 296 287.422 296 238.622 296 c 0,34,35
 197.821 296 197.821 296 165.584 317 c 128,-1,36
 133.346 338 133.346 338 115.905 384.5 c 128,-1,37
 98.4648 431 98.4648 431 107.492 495 c 0,14,15
EndSplineSet
EndChar

StartChar: colon
Encoding: 58 58 29
Width: 144
GlyphClass: 2
Flags: W
LayerCount: 2
Fore
SplineSet
57.5518 409 m 0,0,1
 61.0781 434 61.0781 434 77.9932 449 c 128,-1,2
 94.9102 464 94.9102 464 112.181 464.5 c 128,-1,3
 129.451 465 129.451 465 142.205 450.5 c 128,-1,4
 154.96 436 154.96 436 151.293 410 c 0,5,6
 147.484 383 147.484 383 130.497 367.5 c 128,-1,7
 113.511 352 113.511 352 96.3105 352 c 128,-1,8
 79.1104 352 79.1104 352 66.4268 367 c 128,-1,9
 53.7432 382 53.7432 382 57.5518 409 c 0,0,1
9.63672 75 m 0,10,11
 13.4463 102 13.4463 102 30.0322 117.5 c 128,-1,12
 46.6182 133 46.6182 133 64.2891 133.5 c 128,-1,13
 81.959 134 81.959 134 94.2432 119 c 128,-1,14
 106.527 104 106.527 104 102.72 77 c 0,15,16
 98.6279 48 98.6279 48 81.9004 31.5 c 128,-1,17
 65.1729 15 65.1729 15 47.5732 15 c 128,-1,18
 29.9736 15 29.9736 15 17.8301 31 c 128,-1,19
 5.6875 47 5.6875 47 9.63672 75 c 0,10,11
EndSplineSet
EndChar

StartChar: semicolon
Encoding: 59 59 30
Width: 139
GlyphClass: 2
Flags: W
LayerCount: 2
Fore
SplineSet
57.6592 414 m 256,0,1
 61.3271 440 61.3271 440 77.8428 455 c 128,-1,2
 94.3584 470 94.3584 470 111.959 470 c 128,-1,3
 129.559 470 129.559 470 141.983 456 c 128,-1,4
 154.409 442 154.409 442 150.741 416 c 0,5,6
 146.934 389 146.934 389 130.346 373.5 c 128,-1,7
 113.761 358 113.761 358 96.1602 358 c 128,-1,8
 78.5605 358 78.5605 358 66.2754 373 c 128,-1,9
 53.9912 388 53.9912 388 57.6592 414 c 256,0,1
16.2373 92 m 0,10,11
 19.7637 117 19.7637 117 36.3506 132.5 c 128,-1,12
 52.9365 148 52.9365 148 70.208 148.5 c 128,-1,13
 87.4785 149 87.4785 149 99.2207 133 c 128,-1,14
 110.964 117 110.964 117 106.873 88 c 0,15,16
 104.193 69 104.193 69 94.7129 50 c 128,-1,17
 85.2324 31 85.2324 31 77.3516 20.5 c 128,-1,18
 69.4707 10 69.4707 10 52.2949 -4 c 128,-1,19
 35.1211 -18 35.1211 -18 31.9678 -20.5 c 128,-1,20
 28.8154 -23 28.8154 -23 13.9463 -32 c 1,21,22
 18.6514 -27 18.6514 -27 25.0029 -16 c 128,-1,23
 31.3545 -5 31.3545 -5 37.4473 7 c 128,-1,24
 43.54 19 43.54 19 47.8213 29.5 c 128,-1,25
 52.1025 40 52.1025 40 51.748 46 c 128,-1,26
 51.3955 52 51.3955 52 45.5137 50 c 0,27,28
 32.1484 46 32.1484 46 22.3115 58.5 c 128,-1,29
 12.4746 71 12.4746 71 16.2373 92 c 0,10,11
EndSplineSet
EndChar

StartChar: less
Encoding: 60 60 31
Width: 560
GlyphClass: 2
Flags: W
LayerCount: 2
Fore
SplineSet
526.44 596 m 1,0,-1
 512.335 496 l 1,1,-1
 293.902 371 l 1,2,-1
 472.081 239 l 1,3,-1
 456.752 136 l 1,4,-1
 188.259 331 l 1,5,-1
 133.524 374 l 1,6,-1
 184.675 402 l 1,7,-1
 526.44 596 l 1,0,-1
EndSplineSet
EndChar

StartChar: equal
Encoding: 61 61 32
Width: 598
GlyphClass: 2
Flags: W
LayerCount: 2
Fore
SplineSet
147.091 289 m 1,0,-1
 500.551 288 l 1,1,-1
 486.537 200 l 1,2,-1
 133.077 201 l 1,3,-1
 147.091 289 l 1,0,-1
177.463 527 m 1,4,-1
 530.922 526 l 1,5,-1
 520.109 438 l 1,6,-1
 166.649 439 l 1,7,-1
 177.463 527 l 1,4,-1
EndSplineSet
EndChar

StartChar: greater
Encoding: 62 62 33
Width: 552
GlyphClass: 2
Flags: W
LayerCount: 2
Fore
SplineSet
157.33 596 m 1,0,-1
 444.364 402 l 1,1,-1
 487.613 374 l 1,2,-1
 420.748 331 l 1,3,-1
 97.2412 136 l 1,4,-1
 110.971 239 l 1,5,-1
 326.391 371 l 1,6,-1
 143.224 496 l 1,7,-1
 157.33 596 l 1,0,-1
EndSplineSet
EndChar

StartChar: question
Encoding: 63 63 34
Width: 499
GlyphClass: 2
Flags: W
LayerCount: 2
Fore
SplineSet
301.77 672 m 0,0,1
 276.97 672 276.97 672 258.03 662.5 c 128,-1,2
 239.09 653 239.09 653 227.986 639.5 c 128,-1,3
 216.882 626 216.882 626 202.624 610 c 1,4,-1
 178.757 679 l 1,5,6
 209.436 715 209.436 715 243.834 732 c 128,-1,7
 278.231 749 278.231 749 323.031 749 c 0,8,9
 394.231 749 394.231 749 429.25 699.5 c 128,-1,10
 464.267 650 464.267 650 452.699 568 c 0,11,12
 446.775 526 446.775 526 427.438 491 c 128,-1,13
 408.102 456 408.102 456 369.376 414 c 2,14,-1
 329.569 370 l 2,15,16
 294.326 330 294.326 330 286.235 309.5 c 128,-1,17
 278.144 289 278.144 289 270.809 237 c 2,18,-1
 266.811 220 l 1,19,-1
 188.505 215 l 1,20,-1
 193.959 248 l 2,21,22
 202.142 306 202.142 306 219.597 339 c 128,-1,23
 237.053 372 237.053 372 272.953 411 c 2,24,-1
 313.842 457 l 2,25,26
 321.371 465 321.371 465 329.77 473.5 c 128,-1,27
 338.168 482 338.168 482 346.05 492.5 c 128,-1,28
 353.931 503 353.931 503 360.471 512.5 c 128,-1,29
 367.011 522 367.011 522 371.903 534 c 128,-1,30
 376.796 546 376.796 546 377.689 558 c 0,31,32
 391.37 672 391.37 672 301.77 672 c 0,0,1
159.44 60 m 0,33,34
 163.249 87 163.249 87 179.836 102.5 c 128,-1,35
 196.422 118 196.422 118 214.092 118.5 c 128,-1,36
 231.763 119 231.763 119 244.048 104 c 128,-1,37
 256.331 89 256.331 89 252.521 62 c 0,38,39
 248.432 33 248.432 33 231.704 16.5 c 128,-1,40
 214.978 0 214.978 0 197.377 0 c 128,-1,41
 179.777 0 179.777 0 167.634 16 c 128,-1,42
 155.49 32 155.49 32 159.44 60 c 0,33,34
EndSplineSet
EndChar

StartChar: at
Encoding: 64 64 35
Width: 815
GlyphClass: 2
Flags: W
LayerCount: 2
Fore
SplineSet
609.288 90 m 1,0,1
 582.607 71 582.607 71 567.268 61.5 c 128,-1,2
 551.928 52 551.928 52 525.035 40 c 128,-1,3
 498.142 28 498.142 28 466.637 23 c 128,-1,4
 435.132 18 435.132 18 393.531 18 c 0,5,6
 341.531 18 341.531 18 298.822 38.5 c 128,-1,7
 256.115 59 256.115 59 229.641 92.5 c 128,-1,8
 203.166 126 203.166 126 186.432 169 c 128,-1,9
 169.697 212 169.697 212 165.786 258 c 128,-1,10
 161.875 304 161.875 304 168.363 350 c 0,11,12
 187.972 489 187.972 489 269.419 590 c 0,13,14
 313.035 644 313.035 644 380.891 677 c 128,-1,15
 448.746 710 448.746 710 511.946 710 c 0,16,17
 570.346 710 570.346 710 621.784 689 c 128,-1,18
 673.222 668 673.222 668 701.743 632 c 0,19,20
 738.172 584 738.172 584 749.38 516 c 128,-1,21
 760.588 448 760.588 448 749.726 371 c 0,22,23
 741.686 314 741.686 314 726.56 280.5 c 128,-1,24
 711.435 247 711.435 247 673.416 210 c 0,25,26
 642.124 181 642.124 181 604.337 174 c 128,-1,27
 566.55 167 566.55 167 538.194 181.5 c 128,-1,28
 509.84 196 509.84 196 502.072 226 c 1,29,30
 469.746 201 469.746 201 432.853 197.5 c 128,-1,31
 395.958 194 395.958 194 366.216 210 c 128,-1,32
 336.473 226 336.473 226 320.186 266.5 c 128,-1,33
 303.897 307 303.897 307 310.997 363 c 0,34,35
 316.404 407 316.404 407 333.412 442.5 c 128,-1,36
 350.42 478 350.42 478 373.312 498.5 c 128,-1,37
 396.203 519 396.203 519 422.556 530 c 128,-1,38
 448.906 541 448.906 541 475.495 539.5 c 128,-1,39
 502.084 538 502.084 538 523.45 525 c 0,40,41
 536.58 516 536.58 516 540.487 504 c 1,42,-1
 544.86 535 l 1,43,-1
 603.261 535 l 1,44,45
 597.711 507 597.711 507 589.668 467 c 128,-1,46
 581.625 427 581.625 427 577.252 404.5 c 128,-1,47
 572.878 382 572.878 382 568.812 347.5 c 128,-1,48
 564.745 313 564.745 313 563.666 277 c 1,49,50
 567.057 250 567.057 250 595.812 244 c 128,-1,51
 624.565 238 624.565 238 647.15 262 c 0,52,53
 670.677 287 670.677 287 678.134 303 c 128,-1,54
 685.591 319 685.591 319 692.362 367 c 0,55,56
 711.218 495 711.218 495 657.139 571 c 0,57,58
 635.253 603 635.253 603 591.721 620.5 c 128,-1,59
 548.189 638 548.189 638 502.589 638 c 0,60,61
 448.989 638 448.989 638 393.322 612 c 128,-1,62
 337.654 586 337.654 586 304.247 542 c 0,63,64
 246.186 465 246.186 465 229.964 350 c 0,65,66
 224.322 310 224.322 310 232.444 265.5 c 128,-1,67
 240.566 221 240.566 221 260.924 181 c 128,-1,68
 281.282 141 281.282 141 318.673 114 c 128,-1,69
 356.064 87 356.064 87 403.123 86 c 0,70,71
 432.583 85 432.583 85 456.935 87.5 c 128,-1,72
 481.288 90 481.288 90 497.663 95.5 c 128,-1,73
 514.039 101 514.039 101 528.627 108 c 128,-1,74
 543.215 115 543.215 115 553.942 123 c 128,-1,75
 564.672 131 564.672 131 577.141 140 c 1,76,-1
 609.288 90 l 1,0,1
369.821 366 m 0,77,78
 365.166 333 365.166 333 374.769 307.5 c 128,-1,79
 384.371 282 384.371 282 403.031 272.5 c 128,-1,80
 421.691 263 421.691 263 442.633 264 c 128,-1,81
 463.574 265 463.574 265 483.501 281.5 c 128,-1,82
 503.429 298 503.429 298 513.92 327 c 0,83,84
 517.07 338 517.07 338 520.973 368.5 c 128,-1,85
 524.876 399 524.876 399 525.486 409 c 1,86,87
 522.519 439 522.519 439 507.857 457 c 128,-1,88
 493.196 475 493.196 475 472.467 475.5 c 128,-1,89
 451.738 476 451.738 476 430.256 465.5 c 128,-1,90
 408.775 455 408.775 455 391.837 428.5 c 128,-1,91
 374.898 402 374.898 402 369.821 366 c 0,77,78
EndSplineSet
EndChar

StartChar: A
Encoding: 65 65 36
Width: 593
GlyphClass: 2
Flags: W
LayerCount: 2
Fore
SplineSet
369.216 731 m 5,0,-1
 389.039 639 l 5,1,-1
 525.441 1 l 5,2,-1
 449.441 1 l 5,3,-1
 406.313 183 l 5,4,-1
 186.313 183 l 5,5,-1
 95.8408 1 l 5,6,-1
 19.8408 1 l 5,7,-1
 334.636 656 l 5,8,-1
 369.216 731 l 5,0,-1
387.622 266 m 5,9,-1
 339.406 514 l 5,10,-1
 226.821 266 l 5,11,-1
 387.622 266 l 5,9,-1
EndSplineSet
EndChar

StartChar: B
Encoding: 66 66 37
Width: 457
GlyphClass: 2
Flags: W
LayerCount: 2
Fore
SplineSet
127.264 688 m 1,0,-1
 287.264 688 l 1,1,-1
 289.382 686 l 1,2,3
 325.522 687 325.522 687 351.854 669.5 c 128,-1,4
 378.187 652 378.187 652 390.636 624 c 128,-1,5
 403.087 596 403.087 596 404.879 560.5 c 128,-1,6
 406.671 525 406.671 525 397.616 492 c 128,-1,7
 388.561 459 388.561 459 367.271 430 c 128,-1,8
 345.979 401 345.979 401 315.863 386 c 1,9,10
 315.062 386 315.062 386 314.853 384.5 c 128,-1,11
 314.641 383 314.641 383 315.44 383 c 0,12,13
 351.958 381 351.958 381 374.597 351.5 c 128,-1,14
 397.235 322 397.235 322 402.771 279 c 128,-1,15
 408.305 236 408.305 236 398.522 186.5 c 128,-1,16
 388.739 137 388.739 137 365.615 95 c 128,-1,17
 342.489 53 342.489 53 301.881 26 c 128,-1,18
 261.272 -1 261.272 -1 211.955 1 c 2,19,-1
 203.814 0 l 1,20,-1
 69.4141 0 l 1,21,-1
 69.5547 1 l 1,22,-1
 30.2139 0 l 1,23,-1
 127.264 688 l 1,0,-1
186.708 616 m 1,24,-1
 157.226 407 l 1,25,-1
 246.825 407 l 2,26,27
 276.331 412 276.331 412 297.905 434.5 c 128,-1,28
 319.479 457 319.479 457 326.841 486.5 c 128,-1,29
 334.201 516 334.201 516 331.892 545 c 128,-1,30
 329.584 574 329.584 574 311.604 594 c 128,-1,31
 293.625 614 293.625 614 264.166 615 c 1,32,-1
 264.308 616 l 1,33,-1
 186.708 616 l 1,24,-1
146.928 334 m 1,34,-1
 113.215 95 l 1,35,-1
 235.615 95 l 2,36,37
 266.956 96 266.956 96 290.341 120 c 128,-1,38
 313.727 144 313.727 144 321.863 179 c 128,-1,39
 330 214 330 214 328.067 248.5 c 128,-1,40
 326.134 283 326.134 283 307.99 307.5 c 128,-1,41
 289.846 332 289.846 332 260.388 333 c 1,42,-1
 260.527 334 l 1,43,-1
 146.928 334 l 1,34,-1
EndSplineSet
EndChar

StartChar: C
Encoding: 67 67 38
Width: 627
GlyphClass: 2
Flags: W
LayerCount: 2
Fore
SplineSet
466.502 702 m 4,0,1
 536.479 699 536.479 699 581.329 671 c 4,2,3
 598.177 660 598.177 660 604.86 653.5 c 132,-1,4
 611.543 647 611.543 647 625.804 629 c 5,5,-1
 560.117 566 l 5,6,7
 551.457 584 551.457 584 516.043 599.5 c 132,-1,8
 480.63 615 480.63 615 453.57 616 c 4,9,10
 389.194 619 389.194 619 321.293 571.5 c 132,-1,11
 253.393 524 253.393 524 213.731 447 c 4,12,13
 160.803 344 160.803 344 176.837 245 c 132,-1,14
 192.871 146 192.871 146 269.301 98 c 4,15,16
 306.715 74 306.715 74 351.373 73 c 132,-1,17
 396.033 72 396.033 72 438.172 90 c 132,-1,18
 480.312 108 480.312 108 521.907 142 c 5,19,-1
 560.457 75 l 5,20,21
 519.613 35 519.613 35 467.64 12.5 c 132,-1,22
 415.666 -10 415.666 -10 368.771 -13.5 c 132,-1,23
 321.878 -17 321.878 -17 281.736 -9.5 c 132,-1,24
 241.595 -2 241.595 -2 217.593 15 c 4,25,26
 116.549 87 116.549 87 97.875 215.5 c 132,-1,27
 79.2021 344 79.2021 344 151.892 485 c 4,28,29
 205.903 590 205.903 590 291.755 648.5 c 132,-1,30
 377.607 707 377.607 707 466.502 702 c 4,0,1
EndSplineSet
EndChar

StartChar: D
Encoding: 68 68 39
Width: 544
GlyphClass: 2
Flags: W
LayerCount: 2
Fore
SplineSet
220.279 691 m 2,0,1
 235.761 693 235.761 693 265.62 692 c 128,-1,2
 295.479 691 295.479 691 308.279 691 c 0,3,4
 354.538 690 354.538 690 391.811 673.5 c 128,-1,5
 429.083 657 429.083 657 451.675 630 c 128,-1,6
 474.266 603 474.266 603 486.739 578 c 128,-1,7
 499.213 553 499.213 553 505.804 526 c 0,8,9
 522.188 455 522.188 455 515.915 376.5 c 128,-1,10
 509.642 298 509.642 298 483.297 227.5 c 128,-1,11
 456.952 157 456.952 157 407.641 99.5 c 128,-1,12
 358.33 42 358.33 42 294.662 16 c 0,13,14
 276.875 9 276.875 9 234.806 0 c 1,15,16
 222.006 0 222.006 0 198.735 -0.5 c 128,-1,17
 175.464 -1 175.464 -1 161.864 -1 c 128,-1,18
 148.265 -1 148.265 -1 117.206 0 c 2,19,-1
 38.0059 0 l 1,20,-1
 135.479 691 l 1,21,-1
 220.279 691 l 2,0,1
437.15 476 m 0,22,23
 425.379 540 425.379 540 387.869 577.5 c 128,-1,24
 350.357 615 350.357 615 290.357 615 c 0,25,26
 286.357 615 286.357 615 256.029 615.5 c 128,-1,27
 225.699 616 225.699 616 198.358 615 c 1,28,-1
 125.714 83 l 1,29,30
 154.514 83 154.514 83 180.373 82 c 128,-1,31
 206.231 81 206.231 81 239.407 86.5 c 128,-1,32
 272.583 92 272.583 92 300.958 106 c 0,33,34
 343.779 126 343.779 126 375.232 176 c 128,-1,35
 406.685 226 406.685 226 420.655 282.5 c 128,-1,36
 434.625 339 434.625 339 438.76 391 c 128,-1,37
 442.896 443 442.896 443 437.15 476 c 0,22,23
EndSplineSet
EndChar

StartChar: E
Encoding: 69 69 40
Width: 433
GlyphClass: 2
Flags: W
LayerCount: 2
Fore
SplineSet
139.479 693 m 5,0,-1
 432.278 693 l 5,1,-1
 420.287 608 l 5,2,-1
 201.087 608 l 5,3,-1
 173.44 412 l 5,4,-1
 330.24 412 l 5,5,-1
 318.531 329 l 5,6,-1
 161.731 329 l 5,7,-1
 126.889 82 l 5,8,-1
 353.289 82 l 5,9,-1
 341.722 0 l 5,10,-1
 41.7217 0 l 5,11,-1
 139.479 693 l 5,0,-1
EndSplineSet
EndChar

StartChar: F
Encoding: 70 70 41
Width: 422
GlyphClass: 2
Flags: W
LayerCount: 2
Fore
SplineSet
142.037 691 m 1,0,-1
 424.437 691 l 1,1,-1
 412.869 609 l 1,2,-1
 204.869 609 l 1,3,-1
 177.081 412 l 1,4,-1
 333.081 412 l 1,5,-1
 321.373 329 l 1,6,-1
 165.373 329 l 1,7,-1
 118.963 0 l 1,8,-1
 44.5635 0 l 1,9,-1
 142.037 691 l 1,0,-1
EndSplineSet
EndChar

StartChar: G
Encoding: 71 71 42
Width: 633
GlyphClass: 2
Flags: W
LayerCount: 2
Fore
SplineSet
609.984 365 m 1,0,-1
 574.06 116 l 2,1,2
 571.803 100 571.803 100 556.133 91 c 1,3,4
 515.149 50 515.149 50 463.104 27 c 128,-1,5
 411.06 4 411.06 4 363.226 -0.5 c 128,-1,6
 315.391 -5 315.391 -5 275.179 2 c 128,-1,7
 234.966 9 234.966 9 210.964 26 c 0,8,9
 144.935 74 144.935 74 114.032 147 c 128,-1,10
 83.1299 220 83.1299 220 87.9912 297 c 128,-1,11
 92.8535 374 92.8535 374 123.856 452 c 128,-1,12
 154.858 530 154.858 530 204.593 590.5 c 128,-1,13
 254.327 651 254.327 651 322.206 687 c 128,-1,14
 390.084 723 390.084 723 460.86 720 c 0,15,16
 530.838 717 530.838 717 575.547 688 c 0,17,18
 592.395 677 592.395 677 599.078 670.5 c 128,-1,19
 605.761 664 605.761 664 620.021 646 c 1,20,-1
 554.193 582 l 1,21,22
 546.475 601 546.475 601 510.59 616 c 128,-1,23
 474.706 631 474.706 631 447.788 633 c 0,24,25
 383.412 636 383.412 636 315.44 588 c 128,-1,26
 247.47 540 247.47 540 207.808 463 c 0,27,28
 154.596 358 154.596 358 170.561 258.5 c 128,-1,29
 186.524 159 186.524 159 262.672 109 c 0,30,31
 298.627 86 298.627 86 341.286 85 c 128,-1,32
 383.945 84 383.945 84 424.744 101 c 128,-1,33
 465.542 118 465.542 118 505.914 149 c 1,34,-1
 529.004 290 l 1,35,-1
 418.604 290 l 1,36,-1
 429.843 364 l 1,37,-1
 609.984 365 l 1,0,-1
EndSplineSet
EndChar

StartChar: H
Encoding: 72 72 43
Width: 567
GlyphClass: 2
Flags: W
LayerCount: 2
Fore
SplineSet
496.749 694 m 1,0,-1
 569.549 694 l 1,1,-1
 471.651 0 l 1,2,-1
 398.852 0 l 1,3,-1
 442.722 311 l 1,4,-1
 178.862 312 l 1,5,-1
 134.852 0 l 1,6,-1
 60.4512 0 l 1,7,-1
 157.784 690 l 1,8,-1
 231.384 690 l 1,9,-1
 221.887 617 l 1,10,-1
 190.43 394 l 1,11,-1
 454.43 394 l 1,12,-1
 496.749 694 l 1,0,-1
EndSplineSet
EndChar

StartChar: I
Encoding: 73 73 44
Width: 186
GlyphClass: 2
Flags: W
LayerCount: 2
Fore
SplineSet
116.118 696 m 5,0,-1
 188.118 696 l 5,1,-1
 90.8809 1 l 5,2,-1
 18.8809 1 l 5,3,-1
 116.118 696 l 5,0,-1
EndSplineSet
EndChar

StartChar: J
Encoding: 74 74 45
Width: 356
GlyphClass: 2
Flags: W
LayerCount: 2
Fore
SplineSet
53.3809 72 m 1,0,1
 78.5127 46 78.5127 46 109.83 44 c 128,-1,2
 141.148 42 141.148 42 169.1 61.5 c 128,-1,3
 197.05 81 197.05 81 219.256 125 c 128,-1,4
 241.464 169 241.464 169 248.986 228 c 2,5,-1
 309.967 700 l 1,6,-1
 382.767 700 l 1,7,-1
 322.539 222 l 2,8,9
 314.265 152 314.265 152 288.036 96.5 c 128,-1,10
 261.807 41 261.807 41 226.704 10.5 c 128,-1,11
 191.603 -20 191.603 -20 152.898 -33.5 c 128,-1,12
 114.193 -47 114.193 -47 76.4512 -39.5 c 128,-1,13
 38.709 -32 38.709 -32 9.43555 -7 c 1,14,-1
 53.3809 72 l 1,0,1
EndSplineSet
EndChar

StartChar: K
Encoding: 75 75 46
Width: 566
GlyphClass: 2
Flags: W
LayerCount: 2
Fore
SplineSet
437.325 686 m 1,0,-1
 527.725 686 l 1,1,-1
 259.621 362 l 1,2,-1
 478.675 -2 l 1,3,-1
 386.675 -2 l 1,4,-1
 173.457 358 l 1,5,-1
 122.675 -2 l 1,6,-1
 48.2754 -2 l 1,7,-1
 145.325 686 l 1,8,-1
 219.725 686 l 1,9,-1
 173.881 361 l 1,10,-1
 437.325 686 l 1,0,-1
EndSplineSet
EndChar

StartChar: L
Encoding: 76 76 47
Width: 415
GlyphClass: 2
Flags: W
LayerCount: 2
Fore
SplineSet
198.769 690 m 1,0,-1
 113.427 85 l 1,1,-1
 339.827 85 l 1,2,-1
 328.119 2 l 1,3,-1
 27.3184 2 l 1,4,-1
 124.511 691 l 1,5,-1
 198.769 690 l 1,0,-1
EndSplineSet
EndChar

StartChar: M
Encoding: 77 77 48
Width: 657
GlyphClass: 2
Flags: W
LayerCount: 2
Fore
SplineSet
360.922 330 m 1,0,-1
 643.795 719 l 1,1,-1
 569.807 -4 l 1,2,-1
 501.007 -4 l 1,3,-1
 541.235 457 l 1,4,-1
 341.172 190 l 1,5,-1
 213.659 460 l 1,6,-1
 123.83 -1 l 1,7,-1
 55.0303 -1 l 1,8,-1
 185.158 723 l 1,9,-1
 360.922 330 l 1,0,-1
EndSplineSet
EndChar

StartChar: N
Encoding: 78 78 49
Width: 581
GlyphClass: 2
Flags: W
LayerCount: 2
Fore
SplineSet
199.556 467 m 1,0,-1
 134.103 3 l 1,1,-1
 64.5029 3 l 1,2,-1
 162.822 700 l 1,3,-1
 448.856 204 l 1,4,-1
 515.858 696 l 1,5,-1
 586.259 696 l 1,6,-1
 484.13 -28 l 1,7,-1
 199.556 467 l 1,0,-1
EndSplineSet
EndChar

StartChar: O
Encoding: 79 79 50
Width: 676
GlyphClass: 2
Flags: W
LayerCount: 2
Fore
SplineSet
397.21 627 m 4,0,1
 350.81 627 350.81 627 310.296 603.5 c 132,-1,2
 269.779 580 269.779 580 241.949 541.5 c 132,-1,3
 214.118 503 214.118 503 195.206 454 c 132,-1,4
 176.295 405 176.295 405 169.9 354 c 132,-1,5
 163.506 303 163.506 303 170.124 253.5 c 132,-1,6
 176.74 204 176.74 204 195.381 166 c 132,-1,7
 214.021 128 214.021 128 249.505 104.5 c 132,-1,8
 284.991 81 284.991 81 332.991 81 c 4,9,10
 381.791 81 381.791 81 425.905 104.5 c 132,-1,11
 470.021 128 470.021 128 500.65 166.5 c 132,-1,12
 531.282 205 531.282 205 551.865 254.5 c 132,-1,13
 572.447 304 572.447 304 580.111 355.5 c 132,-1,14
 587.776 407 587.776 407 580.288 456 c 132,-1,15
 572.801 505 572.801 505 552.231 543.5 c 132,-1,16
 531.662 582 531.662 582 491.706 605 c 132,-1,17
 451.751 628 451.751 628 397.21 627 c 4,0,1
414.095 707 m 4,18,19
 485.295 707 485.295 707 538.122 676 c 132,-1,20
 590.949 645 590.949 645 619.097 595 c 132,-1,21
 647.243 545 647.243 545 657.015 481 c 132,-1,22
 666.787 417 666.787 417 657.006 350.5 c 132,-1,23
 647.226 284 647.226 284 619.468 220.5 c 132,-1,24
 591.711 157 591.711 157 549.929 107.5 c 132,-1,25
 508.146 58 508.146 58 447.844 27.5 c 132,-1,26
 387.541 -3 387.541 -3 319.541 -3 c 4,27,28
 253.142 -3 253.142 -3 203.844 27.5 c 132,-1,29
 154.546 58 154.546 58 128.799 108 c 132,-1,30
 103.053 158 103.053 158 94.4092 221.5 c 132,-1,31
 85.7676 285 85.7676 285 95.2178 352 c 132,-1,32
 104.669 419 104.669 419 130.826 482.5 c 132,-1,33
 156.983 546 156.983 546 196.437 596 c 132,-1,34
 235.89 646 235.89 646 292.593 676.5 c 132,-1,35
 349.295 707 349.295 707 414.095 707 c 4,18,19
EndSplineSet
EndChar

StartChar: P
Encoding: 80 80 51
Width: 452
GlyphClass: 2
Flags: W
LayerCount: 2
Fore
SplineSet
137.938 693 m 1,0,-1
 303.397 692 l 2,1,2
 353.139 693 353.139 693 385.918 664.5 c 128,-1,3
 418.698 636 418.698 636 429.032 593 c 128,-1,4
 439.366 550 439.366 550 431.773 499 c 128,-1,5
 424.179 448 424.179 448 400.843 404.5 c 128,-1,6
 377.507 361 377.507 361 335.415 332 c 128,-1,7
 293.324 303 293.324 303 240.666 304 c 2,8,-1
 156.524 303 l 1,9,-1
 114.206 3 l 1,10,-1
 40.3242 1 l 1,11,-1
 137.938 693 l 1,0,-1
199.83 610 m 1,12,-1
 168.092 385 l 1,13,-1
 254.491 385 l 2,14,15
 280.092 385 280.092 385 301.618 401.5 c 128,-1,16
 323.147 418 323.147 418 335.803 442.5 c 128,-1,17
 348.459 467 348.459 467 353.749 496 c 128,-1,18
 359.04 525 359.04 525 354.566 550 c 128,-1,19
 350.093 575 350.093 575 333.691 592 c 128,-1,20
 317.289 609 317.289 609 290.889 609 c 2,21,-1
 199.83 610 l 1,12,-1
EndSplineSet
EndChar

StartChar: Q
Encoding: 81 81 52
Width: 686
GlyphClass: 2
Flags: W
LayerCount: 2
Fore
SplineSet
404.006 627 m 0,0,1
 357.606 627 357.606 627 317.091 603.5 c 128,-1,2
 276.575 580 276.575 580 248.346 541.5 c 128,-1,3
 220.114 503 220.114 503 201.603 454 c 128,-1,4
 183.09 405 183.09 405 176.695 354 c 128,-1,5
 170.302 303 170.302 303 176.92 253.5 c 128,-1,6
 183.536 204 183.536 204 202.177 166 c 128,-1,7
 220.816 128 220.816 128 256.301 104.5 c 128,-1,8
 291.787 81 291.787 81 338.987 81 c 0,9,10
 388.587 81 388.587 81 432.301 104.5 c 128,-1,11
 476.017 128 476.017 128 506.646 166.5 c 128,-1,12
 537.278 205 537.278 205 558.261 254.5 c 128,-1,13
 579.243 304 579.243 304 586.508 355.5 c 128,-1,14
 593.772 407 593.772 407 586.685 456 c 128,-1,15
 579.597 505 579.597 505 559.027 543.5 c 128,-1,16
 538.458 582 538.458 582 498.103 605 c 128,-1,17
 457.747 628 457.747 628 404.006 627 c 0,0,1
420.89 707 m 0,18,19
 492.09 707 492.09 707 544.918 676 c 128,-1,20
 597.745 645 597.745 645 625.492 595 c 128,-1,21
 653.239 545 653.239 545 663.011 481 c 128,-1,22
 672.783 417 672.783 417 663.402 350.5 c 128,-1,23
 654.021 284 654.021 284 625.864 220.5 c 128,-1,24
 597.707 157 597.707 157 556.323 107.5 c 128,-1,25
 514.942 58 514.942 58 454.64 27.5 c 128,-1,26
 394.337 -3 394.337 -3 325.537 -3 c 0,27,28
 259.138 -3 259.138 -3 209.84 27.5 c 128,-1,29
 160.542 58 160.542 58 135.195 108 c 128,-1,30
 109.849 158 109.849 158 100.806 221.5 c 128,-1,31
 91.7627 285 91.7627 285 101.214 352 c 128,-1,32
 110.665 419 110.665 419 137.223 482.5 c 128,-1,33
 163.779 546 163.779 546 203.232 596 c 128,-1,34
 242.687 646 242.687 646 299.389 676.5 c 128,-1,35
 356.09 707 356.09 707 420.89 707 c 0,18,19
513.231 199 m 1,36,-1
 600.73 48 l 1,37,-1
 531.986 -14 l 1,38,-1
 454.792 125 l 1,39,-1
 411.914 201 l 1,40,-1
 478.637 260 l 1,41,-1
 513.231 199 l 1,36,-1
EndSplineSet
EndChar

StartChar: R
Encoding: 82 82 53
Width: 438
GlyphClass: 2
Flags: W
LayerCount: 2
Fore
SplineSet
135.652 700 m 1,0,-1
 301.394 701 l 2,1,2
 343.135 702 343.135 702 373.113 682 c 128,-1,3
 403.093 662 403.093 662 416.907 629.5 c 128,-1,4
 430.723 597 430.723 597 432.54 556 c 128,-1,5
 434.355 515 434.355 515 423.584 475.5 c 128,-1,6
 412.812 436 412.812 436 389.264 399.5 c 128,-1,7
 365.714 363 365.714 363 333.811 341 c 1,8,-1
 417.05 1 l 1,9,-1
 336.25 1 l 1,10,-1
 259.603 314 l 1,11,12
 250.661 313 250.661 313 238.661 313 c 2,13,-1
 154.521 312 l 1,14,-1
 113.851 1 l 1,15,-1
 39.4502 1 l 1,16,-1
 135.652 700 l 1,0,-1
197.686 618 m 1,17,-1
 166.088 394 l 1,18,-1
 253.287 394 l 2,19,20
 278.088 394 278.088 394 299.615 410.5 c 128,-1,21
 321.142 427 321.142 427 334.199 451.5 c 128,-1,22
 347.255 476 347.255 476 352.146 505 c 128,-1,23
 357.036 534 357.036 534 352.562 559 c 128,-1,24
 348.089 584 348.089 584 331.687 601 c 128,-1,25
 315.285 618 315.285 618 288.885 618 c 2,26,-1
 197.686 618 l 1,17,-1
EndSplineSet
EndChar

StartChar: S
Encoding: 83 83 54
Width: 468
GlyphClass: 2
Flags: W
LayerCount: 2
Fore
SplineSet
300.247 705 m 0,0,1
 348.247 705 348.247 705 376.177 696 c 128,-1,2
 404.106 687 404.106 687 428.958 659 c 1,3,-1
 382.706 592 l 1,4,5
 348.632 634 348.632 634 283.503 626 c 0,6,7
 254.139 622 254.139 622 231.553 598 c 128,-1,8
 208.968 574 208.968 574 201.536 544 c 128,-1,9
 194.104 514 194.104 514 209.119 481.5 c 128,-1,10
 224.135 449 224.135 449 263.854 430 c 2,11,-1
 324.705 402 l 2,12,13
 345.694 392 345.694 392 364.496 375 c 128,-1,14
 383.299 358 383.299 358 397.96 331.5 c 128,-1,15
 412.622 305 412.622 305 419.049 274 c 128,-1,16
 425.476 243 425.476 243 418.964 202.5 c 128,-1,17
 412.45 162 412.45 162 391.326 120 c 0,18,19
 315.106 -29 315.106 -29 143.999 0 c 0,20,21
 114.585 7 114.585 7 94.1846 15.5 c 128,-1,22
 73.7842 24 73.7842 24 65.6895 29 c 128,-1,23
 57.5947 34 57.5947 34 32.9336 52 c 1,24,-1
 61.0166 149 l 1,25,26
 121.257 111 121.257 111 163.281 97 c 0,27,28
 188.411 88 188.411 88 215.212 88 c 128,-1,29
 242.012 88 242.012 88 271.14 104.5 c 128,-1,30
 300.267 121 300.267 121 321.438 152 c 0,31,32
 352.21 200 352.21 200 341.311 247.5 c 128,-1,33
 330.411 295 330.411 295 290.409 312 c 0,34,35
 252.712 334 252.712 334 230.924 344 c 0,36,37
 183.862 362 183.862 362 156.399 397 c 128,-1,38
 128.938 432 128.938 432 122.908 471.5 c 128,-1,39
 116.881 511 116.881 511 127.206 553 c 128,-1,40
 137.53 595 137.53 595 160.655 628.5 c 128,-1,41
 183.781 662 183.781 662 220.814 683.5 c 128,-1,42
 257.847 705 257.847 705 300.247 705 c 0,0,1
EndSplineSet
EndChar

StartChar: T
Encoding: 84 84 55
Width: 451
GlyphClass: 2
Flags: W
LayerCount: 2
Fore
SplineSet
120.87 686 m 1,0,-1
 487.27 686 l 1,1,-1
 475.984 606 l 1,2,-1
 330.243 605 l 1,3,-1
 241.701 0 l 1,4,-1
 168.102 0 l 1,5,-1
 168.242 1 l 1,6,-1
 255.843 605 l 1,7,-1
 109.585 606 l 1,8,-1
 120.87 686 l 1,0,-1
EndSplineSet
EndChar

StartChar: U
Encoding: 85 85 56
Width: 536
GlyphClass: 2
Flags: W
LayerCount: 2
Fore
SplineSet
226.945 685 m 5,0,-1
 169.44 266 l 6,1,2
 163.516 224 163.516 224 168.579 189 c 132,-1,3
 173.642 154 173.642 154 187.009 132.5 c 132,-1,4
 200.376 111 200.376 111 219.953 99.5 c 132,-1,5
 239.531 88 239.531 88 261.531 88 c 132,-1,6
 283.531 88 283.531 88 306.424 100 c 132,-1,7
 329.317 112 329.317 112 349.15 133.5 c 132,-1,8
 368.982 155 368.982 155 384.39 190.5 c 132,-1,9
 399.798 226 399.798 226 406.805 270 c 5,10,-1
 408.122 268 l 5,11,-1
 465.721 682 l 5,12,-1
 538.521 682 l 5,13,-1
 482.898 265 l 6,14,15
 474.53 200 474.53 200 450.465 148.5 c 132,-1,16
 426.4 97 426.4 97 394.357 65.5 c 132,-1,17
 362.314 34 362.314 34 324.386 17.5 c 132,-1,18
 286.459 1 286.459 1 249.399 2 c 132,-1,19
 212.341 3 212.341 3 179.61 20.5 c 132,-1,20
 146.878 38 146.878 38 124.121 69.5 c 132,-1,21
 101.365 101 101.365 101 92.959 152 c 132,-1,22
 84.5537 203 84.5537 203 94.7578 264 c 6,23,-1
 152.263 683 l 5,24,-1
 226.945 685 l 5,0,-1
EndSplineSet
EndChar

StartChar: V
Encoding: 86 86 57
Width: 620
GlyphClass: 2
Flags: W
LayerCount: 2
Fore
SplineSet
450.619 429 m 1,0,-1
 579.059 693 l 1,1,-1
 654.259 693 l 1,2,-1
 292.885 -37 l 1,3,-1
 278.805 39 l 1,4,-1
 149.459 693 l 1,5,-1
 224.659 693 l 1,6,-1
 277.819 429 l 1,7,-1
 324.436 181 l 1,8,-1
 450.619 429 l 1,0,-1
EndSplineSet
EndChar

StartChar: W
Encoding: 87 87 58
Width: 791
GlyphClass: 2
Flags: W
LayerCount: 2
Fore
SplineSet
453.45 370 m 1,0,-1
 264.695 -21 l 1,1,-1
 170.872 692 l 1,2,-1
 241.272 692 l 1,3,-1
 302.879 227 l 1,4,-1
 465.052 560 l 1,5,-1
 483.212 598 l 1,6,-1
 490.512 559 l 1,7,-1
 558.22 228 l 1,8,-1
 750.214 693 l 1,9,-1
 819.672 692 l 1,10,-1
 525.777 -19 l 1,11,-1
 453.45 370 l 1,0,-1
EndSplineSet
EndChar

StartChar: X
Encoding: 88 88 59
Width: 619
GlyphClass: 2
Flags: W
LayerCount: 2
Fore
SplineSet
37.1396 0 m 1,0,-1
 103.059 93 l 1,1,-1
 302.554 390 l 1,2,-1
 227.146 570 l 1,3,-1
 172.4 698 l 1,4,-1
 269.201 698 l 1,5,-1
 323.146 570 l 1,6,-1
 360.285 476 l 1,7,-1
 431.237 582 l 1,8,-1
 508.918 696 l 1,9,-1
 593.86 697 l 1,10,-1
 512.791 576 l 1,11,-1
 513.591 576 l 1,12,-1
 392.859 395 l 1,13,-1
 513.036 90 l 1,14,-1
 512.895 89 l 1,15,-1
 546.6 -1 l 1,16,-1
 463.54 0 l 1,17,-1
 429.789 84 l 1,18,-1
 335.269 310 l 1,19,-1
 190.259 93 l 1,20,-1
 132.34 0 l 1,21,-1
 37.1396 0 l 1,0,-1
EndSplineSet
EndChar

StartChar: Y
Encoding: 89 89 60
Width: 555
GlyphClass: 2
Flags: W
LayerCount: 2
Fore
SplineSet
134.209 692 m 1,0,-1
 219.009 692 l 1,1,-1
 325.958 418 l 1,2,-1
 507.009 692 l 1,3,-1
 591.809 692 l 1,4,-1
 354.109 334 l 1,5,-1
 307.418 3 l 1,6,-1
 222.194 0 l 1,7,-1
 274.345 330 l 1,8,-1
 275.145 330 l 1,9,-1
 134.209 692 l 1,0,-1
EndSplineSet
EndChar

StartChar: Z
Encoding: 90 90 61
Width: 716
GlyphClass: 2
Flags: W
LayerCount: 2
Fore
SplineSet
263.502 682 m 1,0,-1
 673.902 682 l 1,1,-1
 615.606 592 l 1,2,-1
 282.017 93 l 1,3,-1
 585.217 93 l 1,4,-1
 572.381 2 l 1,5,-1
 128.098 0 l 1,6,7
 135.108 10 135.108 10 154.917 37 c 128,-1,8
 174.726 64 174.726 64 194.017 93 c 2,9,-1
 529.112 597 l 1,10,-1
 251.512 597 l 1,11,-1
 263.502 682 l 1,0,-1
EndSplineSet
EndChar

StartChar: bracketleft
Encoding: 91 91 62
Width: 312
GlyphClass: 2
Flags: W
LayerCount: 2
Fore
SplineSet
34.5107 0 m 1,0,-1
 133.818 704 l 1,1,-1
 208.736 702 l 1,2,-1
 311.137 702 l 1,3,-1
 297.218 609 l 1,4,-1
 195.617 609 l 1,5,-1
 122.688 92 l 1,6,-1
 226.688 92 l 1,7,-1
 212.911 0 l 1,8,-1
 109.711 0 l 1,9,-1
 34.5107 0 l 1,0,-1
EndSplineSet
EndChar

StartChar: backslash
Encoding: 92 92 63
Width: 442
GlyphClass: 2
Flags: W
LayerCount: 2
Fore
SplineSet
260.347 0 m 1,0,-1
 146.054 704 l 1,1,-1
 225.772 702 l 1,2,-1
 345.946 0 l 1,3,-1
 260.347 0 l 1,0,-1
EndSplineSet
EndChar

StartChar: bracketright
Encoding: 93 93 64
Width: 309
GlyphClass: 2
Flags: W
LayerCount: 2
Fore
SplineSet
212.046 0 m 1,0,-1
 136.847 0 l 1,1,-1
 33.6465 0 l 1,2,-1
 45.8242 92 l 1,3,-1
 149.824 92 l 1,4,-1
 222.753 609 l 1,5,-1
 121.152 609 l 1,6,-1
 133.472 702 l 1,7,-1
 235.872 702 l 1,8,-1
 311.354 704 l 1,9,-1
 212.046 0 l 1,0,-1
EndSplineSet
EndChar

StartChar: asciicircum
Encoding: 94 94 65
Width: 540
GlyphClass: 2
Flags: W
LayerCount: 2
Fore
SplineSet
400.985 530 m 1,0,-1
 331.386 530 l 1,1,-1
 299.988 608 l 1,2,-1
 241.785 530 l 1,3,-1
 168.045 529 l 1,4,-1
 318.562 734 l 1,5,-1
 400.985 530 l 1,0,-1
EndSplineSet
EndChar

StartChar: underscore
Encoding: 95 95 66
Width: 503
GlyphClass: 2
Flags: W
LayerCount: 2
Fore
SplineSet
470.483 0 m 5,0,-1
 458.917 -82 l 5,1,-1
 88.5166 -82 l 5,2,-1
 100.084 0 l 5,3,-1
 470.483 0 l 5,0,-1
EndSplineSet
EndChar

StartChar: grave
Encoding: 96 96 67
Width: 899
GlyphClass: 2
Flags: W
LayerCount: 2
Fore
SplineSet
482.024 985 m 1,0,-1
 573.289 838 l 1,1,-1
 526.658 791 l 1,2,-1
 422.126 912 l 1,3,-1
 482.024 985 l 1,0,-1
EndSplineSet
EndChar

StartChar: a
Encoding: 97 97 68
Width: 460
GlyphClass: 2
Flags: W
LayerCount: 2
Fore
SplineSet
78.499 207 m 4,0,1
 86.3994 263 86.3994 263 107.947 308 c 132,-1,2
 129.495 353 129.495 353 158.903 380 c 132,-1,3
 188.312 407 188.312 407 222.287 421 c 132,-1,4
 256.262 435 256.262 435 289.908 432.5 c 132,-1,5
 323.557 430 323.557 430 350.758 413 c 4,6,7
 367.748 403 367.748 403 373.491 387 c 5,8,-1
 379.134 427 l 5,9,-1
 453.533 427 l 5,10,-1
 392.501 0 l 5,11,-1
 319.7 0 l 5,12,-1
 324.072 31 l 5,13,14
 290.946 6 290.946 6 253.276 -3 c 132,-1,15
 215.607 -12 215.607 -12 181.818 -2 c 132,-1,16
 148.028 8 148.028 8 121.885 32.5 c 132,-1,17
 95.7412 57 95.7412 57 83.3584 102.5 c 132,-1,18
 70.9766 148 70.9766 148 78.499 207 c 4,0,1
147.723 210 m 4,19,20
 141.375 165 141.375 165 153.85 131.5 c 132,-1,21
 166.324 98 166.324 98 191.032 86 c 132,-1,22
 215.738 74 215.738 74 243.408 74.5 c 132,-1,23
 271.08 75 271.08 75 297.453 97.5 c 132,-1,24
 323.828 120 323.828 120 337.046 157 c 4,25,26
 342.363 172 342.363 172 347.275 212.5 c 132,-1,27
 352.188 253 352.188 253 352.422 266 c 4,28,29
 350.019 300 350.019 300 335.451 321.5 c 132,-1,30
 320.884 343 320.884 343 299.871 350 c 132,-1,31
 278.859 357 278.859 357 254.483 351.5 c 132,-1,32
 230.107 346 230.107 346 208.438 328.5 c 132,-1,33
 186.77 311 186.77 311 169.997 280 c 132,-1,34
 153.225 249 153.225 249 147.723 210 c 4,19,20
EndSplineSet
EndChar

StartChar: b
Encoding: 98 98 69
Width: 451
GlyphClass: 2
Flags: W
LayerCount: 2
Fore
SplineSet
399.101 207 m 0,0,1
 389.979 148 389.979 148 364.761 102.5 c 128,-1,2
 339.543 57 339.543 57 306.486 32.5 c 128,-1,3
 273.43 8 273.43 8 236.82 -2 c 128,-1,4
 200.209 -12 200.209 -12 165.079 -3 c 128,-1,5
 129.948 6 129.948 6 103.875 31 c 1,6,-1
 99.502 0 l 1,7,-1
 26.7021 0 l 1,8,-1
 131.416 748 l 1,9,-1
 205.816 748 l 1,10,-1
 154.751 386 l 1,11,12
 162.28 394 162.28 394 178.231 405 c 128,-1,13
 194.184 416 194.184 416 205.147 420 c 0,14,15
 230.559 430 230.559 430 257.029 430.5 c 128,-1,16
 283.499 431 283.499 431 307.57 423 c 128,-1,17
 331.643 415 331.643 415 351.433 396.5 c 128,-1,18
 371.224 378 371.224 378 383.955 352 c 128,-1,19
 396.688 326 396.688 326 400.998 288.5 c 128,-1,20
 405.309 251 405.309 251 399.101 207 c 0,0,1
323.666 211 m 0,21,22
 330.014 256 330.014 256 318.01 290 c 128,-1,23
 306.006 324 306.006 324 282.64 337 c 128,-1,24
 259.273 350 259.273 350 232.402 349.5 c 128,-1,25
 205.532 349 205.532 349 179.959 326.5 c 128,-1,26
 154.385 304 154.385 304 140.884 265 c 0,27,28
 137.45 252 137.45 252 131.148 213 c 128,-1,29
 124.847 174 124.847 174 126.071 160 c 0,30,31
 128.853 123 128.853 123 148.22 101.5 c 128,-1,32
 167.587 80 167.587 80 194.316 79.5 c 128,-1,33
 221.046 79 221.046 79 247.938 91 c 128,-1,34
 274.831 103 274.831 103 296.146 135 c 128,-1,35
 317.459 167 317.459 167 323.666 211 c 0,21,22
EndSplineSet
EndChar

StartChar: c
Encoding: 99 99 70
Width: 381
GlyphClass: 2
Flags: W
LayerCount: 2
Fore
SplineSet
300.98 430 m 4,0,1
 343.334 424 343.334 424 369.313 404 c 0,2,3
 380.185 396 380.185 396 378.727 397 c 128,-1,4
 377.267 398 377.267 398 383.479 391 c 1,5,-1
 332.477 313 l 1,6,7
 328.287 323 328.287 323 311.557 332 c 128,-1,8
 294.826 341 294.826 341 282.308 343 c 0,9,10
 250.073 347 250.073 347 217.675 330 c 128,-1,11
 185.276 313 185.276 313 164.998 277 c 0,12,13
 135.546 227 135.546 227 138.257 181 c 128,-1,14
 140.967 135 140.967 135 175.418 107 c 0,15,16
 195.562 91 195.562 91 221.021 90 c 0,17,18
 258.196 87 258.196 87 289.818 107 c 0,19,20
 301.064 113 301.064 113 306.569 118 c 1,21,-1
 331.566 40 l 1,22,23
 288.983 -1 288.983 -1 213.125 0 c 0,24,25
 153.925 0 153.925 0 126.109 24 c 0,26,27
 67.4219 73 67.4219 73 60.7773 153.5 c 128,-1,28
 54.1328 234 54.1328 234 102.641 317 c 0,29,30
 138.445 378 138.445 378 192.607 407.5 c 128,-1,31
 246.768 437 246.768 437 300.98 430 c 4,0,1
EndSplineSet
EndChar

StartChar: d
Encoding: 100 100 71
Width: 466
GlyphClass: 2
Flags: W
LayerCount: 2
Fore
SplineSet
66.2461 207 m 0,0,1
 72.6396 258 72.6396 258 91.4355 300.5 c 128,-1,2
 110.23 343 110.23 343 135.498 369 c 128,-1,3
 160.766 395 160.766 395 191.634 412.5 c 128,-1,4
 222.503 430 222.503 430 252.714 431.5 c 128,-1,5
 282.926 433 282.926 433 311.538 426 c 0,6,7
 346.129 416 346.129 416 362.694 403 c 1,8,-1
 411.36 748 l 1,9,-1
 485.761 748 l 1,10,-1
 379.446 0 l 1,11,-1
 307.446 0 l 1,12,-1
 312.006 38 l 1,13,14
 309.324 36 309.324 36 298.643 25.5 c 128,-1,15
 287.963 15 287.963 15 281.938 12 c 0,16,17
 250.082 -4 250.082 -4 216.13 -6.5 c 128,-1,18
 182.177 -9 182.177 -9 152.81 4 c 128,-1,19
 123.444 17 123.444 17 100.971 42 c 128,-1,20
 78.498 67 78.498 67 68.9629 110 c 128,-1,21
 59.4287 153 59.4287 153 66.2461 207 c 0,0,1
142.01 211 m 0,22,23
 135.804 167 135.804 167 148.49 135 c 128,-1,24
 161.176 103 161.176 103 184.683 91 c 128,-1,25
 208.19 79 208.19 79 235.062 79.5 c 128,-1,26
 261.932 80 261.932 80 287.364 101.5 c 128,-1,27
 312.797 123 312.797 123 326.017 160 c 0,28,29
 330.391 174 330.391 174 335.492 213 c 128,-1,30
 340.594 252 340.594 252 340.828 265 c 0,31,32
 337.529 304 337.529 304 318.303 326.5 c 128,-1,33
 299.076 349 299.076 349 272.748 349.5 c 128,-1,34
 246.418 350 246.418 350 218.984 337 c 128,-1,35
 191.55 324 191.55 324 169.954 290 c 128,-1,36
 148.358 256 148.358 256 142.01 211 c 0,22,23
EndSplineSet
EndChar

StartChar: e
Encoding: 101 101 72
Width: 450
GlyphClass: 2
Flags: W
LayerCount: 2
Fore
SplineSet
392.593 81 m 5,0,1
 365.115 45 365.115 45 318.388 20 c 4,2,3
 293.214 6 293.214 6 258.108 1 c 4,4,5
 241.826 -1 241.826 -1 225.826 -1 c 4,6,7
 204.226 -1 204.226 -1 185.59 3 c 4,8,9
 142.342 14 142.342 14 114.926 46.5 c 132,-1,10
 87.5107 79 87.5107 79 79.1758 122 c 132,-1,11
 70.8418 165 70.8418 165 78.1543 214 c 132,-1,12
 85.4658 263 85.4658 263 106.402 306.5 c 132,-1,13
 127.339 350 127.339 350 164.465 383.5 c 132,-1,14
 201.589 417 201.589 417 246.341 428 c 4,15,16
 268.646 433 268.646 433 291.847 433 c 4,17,18
 313.447 433 313.447 433 331.283 429 c 4,19,20
 377.589 417 377.589 417 401.147 377 c 132,-1,21
 424.705 337 424.705 337 425.581 286.5 c 132,-1,22
 426.457 236 426.457 236 410.558 180 c 5,23,-1
 150.417 179 l 5,24,25
 154.093 137 154.093 137 173.789 115 c 132,-1,26
 193.486 93 193.486 93 241.58 88 c 4,27,28
 250.898 86 250.898 86 263.51 87.5 c 132,-1,29
 276.121 89 276.121 89 298.261 98.5 c 132,-1,30
 320.402 108 320.402 108 338.142 126 c 6,31,-1
 339.082 127 l 5,32,-1
 392.734 82 l 5,33,-1
 392.593 81 l 5,0,1
353.515 252 m 5,34,35
 360.985 356 360.985 356 280.186 356 c 4,36,37
 235.385 356 235.385 356 203.671 324 c 132,-1,38
 171.956 292 171.956 292 162.174 251 c 5,39,-1
 353.515 252 l 5,34,35
EndSplineSet
EndChar

StartChar: f
Encoding: 102 102 73
Width: 326
GlyphClass: 2
Flags: W
LayerCount: 2
Fore
SplineSet
59.0664 0 m 1,0,-1
 107.874 346 l 1,1,-1
 67.874 346 l 1,2,-1
 78.5938 422 l 1,3,-1
 121.795 422 l 1,4,5
 130.399 483 130.399 483 148.817 528.5 c 128,-1,6
 167.235 574 167.235 574 190.151 597.5 c 128,-1,7
 213.065 621 213.065 621 234.947 631.5 c 128,-1,8
 256.828 642 256.828 642 277.628 642 c 0,9,10
 291.229 642 291.229 642 301.134 638.5 c 128,-1,11
 311.04 635 311.04 635 320.664 629.5 c 128,-1,12
 330.289 624 330.289 624 336.406 622 c 1,13,-1
 287.428 547 l 1,14,-1
 275.097 556 l 1,15,16
 243.097 556 243.097 556 225.405 527 c 128,-1,17
 207.716 498 207.716 498 196.994 422 c 1,18,-1
 279.395 422 l 1,19,-1
 268.393 344 l 1,20,-1
 183.592 344 l 1,21,-1
 135.866 0 l 1,22,-1
 59.0664 0 l 1,0,-1
EndSplineSet
EndChar

StartChar: g
Encoding: 103 103 74
Width: 433
GlyphClass: 2
Flags: W
LayerCount: 2
Fore
SplineSet
161.961 224 m 0,0,1
 156.46 185 156.46 185 168.558 154.5 c 128,-1,2
 180.655 124 180.655 124 202.821 111 c 128,-1,3
 224.987 98 224.987 98 250.188 98 c 128,-1,4
 275.388 98 275.388 98 299.221 119.5 c 128,-1,5
 323.053 141 323.053 141 335.613 179 c 1,6,7
 337.024 189 337.024 189 341.421 214.5 c 128,-1,8
 345.818 240 345.818 240 346.712 252 c 0,9,10
 351.367 285 351.367 285 341.411 308 c 128,-1,11
 331.455 331 331.455 331 312.725 340 c 128,-1,12
 293.994 349 293.994 349 270.042 346.5 c 128,-1,13
 246.089 344 246.089 344 224.185 330.5 c 128,-1,14
 202.279 317 202.279 317 184.73 289 c 128,-1,15
 167.181 261 167.181 261 161.961 224 c 0,0,1
389.611 6 m 2,16,17
 374.376 -102 374.376 -102 297.63 -164 c 0,18,19
 254.575 -197 254.575 -197 201.562 -198.5 c 128,-1,20
 148.552 -200 148.552 -200 110.901 -172 c 0,21,22
 89.1582 -156 89.1582 -156 84.4521 -152.5 c 128,-1,23
 79.7461 -149 79.7461 -149 73.0156 -140 c 1,24,-1
 111.831 -69 l 1,25,26
 113.289 -70 113.289 -70 153.999 -99 c 0,27,28
 171.506 -111 171.506 -111 194.424 -113 c 128,-1,29
 217.342 -115 217.342 -115 239.67 -107 c 128,-1,30
 261.999 -99 261.999 -99 282.42 -79 c 128,-1,31
 302.841 -59 302.841 -59 313.332 -30 c 1,32,-1
 316.764 0 l 1,33,-1
 325.886 59 l 1,34,35
 305.042 36 305.042 36 277.49 25 c 128,-1,36
 249.938 14 249.938 14 222.08 15 c 128,-1,37
 194.221 16 194.221 16 168.195 30 c 128,-1,38
 142.171 44 142.171 44 123.086 67.5 c 128,-1,39
 104 91 104 91 95.4316 129.5 c 128,-1,40
 86.8623 168 86.8623 168 92.5508 214 c 0,41,42
 99.6045 264 99.6045 264 119.199 306.5 c 128,-1,43
 138.794 349 138.794 349 166.133 375.5 c 128,-1,44
 193.471 402 193.471 402 224.786 417 c 128,-1,45
 256.103 432 256.103 432 288.361 431 c 128,-1,46
 320.62 430 320.62 430 347.822 413 c 0,47,48
 364.811 403 364.811 403 370.555 387 c 1,49,-1
 375.397 427 l 1,50,-1
 450.598 427 l 1,51,-1
 389.611 6 l 2,16,17
EndSplineSet
EndChar

StartChar: h
Encoding: 104 104 75
Width: 429
GlyphClass: 2
Flags: W
LayerCount: 2
Fore
SplineSet
369.312 229 m 0,0,1
 359.438 159 359.438 159 353.936 120 c 128,-1,2
 348.436 81 348.436 81 347.095 71.5 c 128,-1,3
 345.755 62 345.755 62 342.815 44 c 128,-1,4
 339.877 26 339.877 26 336.068 -1 c 1,5,-1
 260.868 -1 l 1,6,7
 265.382 31 265.382 31 270.295 63 c 128,-1,8
 275.21 95 275.21 95 280.358 131.5 c 128,-1,9
 285.507 168 285.507 168 294.958 235 c 0,10,11
 300.459 274 300.459 274 292.197 300.5 c 128,-1,12
 283.936 327 283.936 327 267.417 337.5 c 128,-1,13
 250.898 348 250.898 348 229.416 346 c 128,-1,14
 207.935 344 207.935 344 188.029 330.5 c 128,-1,15
 168.125 317 168.125 317 152.599 292 c 128,-1,16
 137.072 267 137.072 267 132.559 235 c 2,17,-1
 99.2676 -1 l 1,18,-1
 27.2676 -1 l 1,19,-1
 131.276 742 l 1,20,-1
 206.522 748 l 1,21,-1
 155.6 387 l 1,22,23
 164.728 395 164.728 395 179.479 406 c 128,-1,24
 194.231 417 194.231 417 205.196 421 c 0,25,26
 232.348 432 232.348 432 259.547 432 c 0,27,28
 329.947 432 329.947 432 356.188 377 c 128,-1,29
 382.431 322 382.431 322 369.312 229 c 0,0,1
EndSplineSet
EndChar

StartChar: i
Encoding: 105 105 76
Width: 186
GlyphClass: 2
Flags: W
LayerCount: 2
Fore
SplineSet
96.7412 545 m 0,0,1
 99.9854 568 99.9854 568 115.09 581.5 c 128,-1,2
 130.194 595 130.194 595 145.865 595.5 c 128,-1,3
 161.536 596 161.536 596 172.901 583 c 128,-1,4
 184.268 570 184.268 570 180.883 546 c 0,5,6
 177.355 521 177.355 521 162.11 506.5 c 128,-1,7
 146.865 492 146.865 492 131.265 492 c 128,-1,8
 115.665 492 115.665 492 104.44 506 c 128,-1,9
 93.2148 520 93.2148 520 96.7412 545 c 0,0,1
87.3418 433 m 1,10,-1
 160.941 433 l 1,11,-1
 99.5801 -2 l 1,12,-1
 27.5801 -2 l 1,13,-1
 87.3418 433 l 1,10,-1
EndSplineSet
EndChar

StartChar: j
Encoding: 106 106 77
Width: 186
GlyphClass: 2
Flags: W
LayerCount: 2
Fore
SplineSet
103.595 545 m 0,0,1
 106.839 568 106.839 568 121.942 581.5 c 128,-1,2
 137.047 595 137.047 595 152.718 595.5 c 128,-1,3
 168.388 596 168.388 596 179.754 583 c 128,-1,4
 191.121 570 191.121 570 187.736 546 c 0,5,6
 184.209 521 184.209 521 168.963 506.5 c 128,-1,7
 153.718 492 153.718 492 138.117 492 c 128,-1,8
 122.518 492 122.518 492 111.293 506 c 128,-1,9
 100.067 520 100.067 520 103.595 545 c 0,0,1
93.7725 430 m 5,10,-1
 167.373 430 l 5,11,-1
 91.5273 -102 l 5,12,-1
 18.7275 -102 l 5,13,-1
 93.7725 430 l 5,10,-1
EndSplineSet
EndChar

StartChar: k
Encoding: 107 107 78
Width: 435
GlyphClass: 2
Flags: W
LayerCount: 2
Fore
SplineSet
211.132 748 m 1,0,-1
 138.391 238 l 1,1,-1
 190.149 293 l 1,2,-1
 314.369 425 l 1,3,-1
 408.628 424 l 1,4,-1
 224.039 227 l 1,5,-1
 372.818 0 l 1,6,-1
 278.277 -1 l 1,7,-1
 171.528 161 l 1,8,-1
 135.288 216 l 1,9,-1
 104.817 0 l 1,10,-1
 30.418 0 l 1,11,-1
 136.731 748 l 1,12,-1
 211.132 748 l 1,0,-1
EndSplineSet
EndChar

StartChar: l
Encoding: 108 108 79
Width: 188
GlyphClass: 2
Flags: W
LayerCount: 2
Fore
SplineSet
120.217 238 m 5,0,-1
 86.6455 0 l 5,1,-1
 12.2451 0 l 5,2,-1
 122.555 782 l 5,3,-1
 197.754 782 l 5,4,-1
 120.217 238 l 5,0,-1
EndSplineSet
EndChar

StartChar: m
Encoding: 109 109 80
Width: 666
GlyphClass: 2
Flags: W
LayerCount: 2
Fore
SplineSet
303.877 433 m 0,0,1
 331.877 433 331.877 433 349.736 423.5 c 128,-1,2
 367.596 414 367.596 414 382.234 393 c 0,3,4
 388.447 386 388.447 386 394.635 384.5 c 128,-1,5
 400.823 383 400.823 383 404.165 384 c 128,-1,6
 407.506 385 407.506 385 416.093 392 c 128,-1,7
 424.681 399 424.681 399 428.162 401 c 0,8,9
 447.079 416 447.079 416 470.607 424 c 0,10,11
 483.453 430 483.453 430 491.523 430.5 c 128,-1,12
 499.594 431 499.594 431 509.854 430 c 0,13,14
 579.453 430 579.453 430 606.213 373 c 128,-1,15
 632.973 316 632.973 316 619.854 223 c 0,16,17
 609.979 153 609.979 153 604.689 115.5 c 128,-1,18
 599.399 78 599.399 78 598.2 69.5 c 128,-1,19
 597.001 61 597.001 61 594.345 45 c 128,-1,20
 591.688 29 591.688 29 587.738 1 c 1,21,-1
 511.597 0 l 1,22,23
 516.111 32 516.111 32 520.131 60.5 c 128,-1,24
 524.151 89 524.151 89 529.348 123 c 128,-1,25
 534.544 157 534.544 157 544.136 225 c 0,26,27
 549.496 263 549.496 263 542.575 290.5 c 128,-1,28
 535.654 318 535.654 318 521.418 330.5 c 128,-1,29
 507.182 343 507.182 343 488.382 343 c 128,-1,30
 469.581 343 469.581 343 451.958 331.5 c 128,-1,31
 434.337 320 434.337 320 420.01 295 c 128,-1,32
 405.684 270 405.684 270 400.887 236 c 0,33,34
 400.041 230 400.041 230 366.797 0 c 1,35,-1
 297.196 0 l 1,36,37
 301.852 33 301.852 33 306.225 64 c 128,-1,38
 310.598 95 310.598 95 316.006 130.5 c 128,-1,39
 321.413 166 321.413 166 330.864 233 c 0,40,41
 336.365 272 336.365 272 329.045 299.5 c 128,-1,42
 321.724 327 321.724 327 306.946 338.5 c 128,-1,43
 292.169 350 292.169 350 272.897 349.5 c 128,-1,44
 253.627 349 253.627 349 235.605 337.5 c 128,-1,45
 217.583 326 217.583 326 202.927 301.5 c 128,-1,46
 188.271 277 188.271 277 183.757 245 c 2,47,-1
 149.196 0 l 1,48,-1
 77.1963 0 l 1,49,-1
 136.912 429 l 1,50,-1
 211.312 429 l 1,51,-1
 206.375 394 l 1,52,53
 221.668 406 221.668 406 230.515 412 c 128,-1,54
 239.36 418 239.36 418 260.419 425.5 c 128,-1,55
 281.477 433 281.477 433 303.877 433 c 0,0,1
EndSplineSet
EndChar

StartChar: n
Encoding: 110 110 81
Width: 381
GlyphClass: 2
Flags: W
LayerCount: 2
Fore
SplineSet
366.546 230 m 2,0,1
 333.302 0 l 1,2,-1
 258.103 0 l 1,3,4
 262.758 33 262.758 33 267.342 65.5 c 128,-1,5
 271.926 98 271.926 98 277.545 135 c 128,-1,6
 283.165 172 283.165 172 292.616 239 c 0,7,8
 298.117 278 298.117 278 290.727 305 c 128,-1,9
 283.335 332 283.335 332 268.486 343 c 128,-1,10
 253.639 354 253.639 354 234.227 352.5 c 128,-1,11
 214.814 351 214.814 351 196.251 338.5 c 128,-1,12
 177.688 326 177.688 326 163.361 301 c 128,-1,13
 149.035 276 149.035 276 144.521 244 c 2,14,-1
 111.702 0 l 1,15,-1
 39.7021 0 l 1,16,-1
 99.418 429 l 1,17,-1
 173.817 429 l 1,18,-1
 169.162 396 l 1,19,20
 173.585 399 173.585 399 209.348 420 c 0,21,22
 225.817 429 225.817 429 269.817 429 c 0,23,24
 338.617 429 338.617 429 359.353 377.5 c 128,-1,25
 380.088 326 380.088 326 366.546 230 c 2,0,1
EndSplineSet
EndChar

StartChar: o
Encoding: 111 111 82
Width: 448
GlyphClass: 2
Flags: W
LayerCount: 2
Fore
SplineSet
268.086 362 m 4,0,1
 233.687 362 233.687 362 205.124 341 c 132,-1,2
 176.562 320 176.562 320 160.66 289.5 c 132,-1,3
 144.757 259 144.757 259 139.279 223 c 132,-1,4
 133.801 187 133.801 187 140.628 156 c 132,-1,5
 147.455 125 147.455 125 169.763 104.5 c 132,-1,6
 192.072 84 192.072 84 226.472 84 c 4,7,8
 279.271 84 279.271 84 316.537 127 c 4,9,10
 341.428 156 341.428 156 352.741 196.5 c 132,-1,11
 364.054 237 364.054 237 360.003 273.5 c 132,-1,12
 355.951 310 355.951 310 332.019 336 c 132,-1,13
 308.086 362 308.086 362 268.086 362 c 4,0,1
279.043 434 m 4,14,15
 336.643 434 336.643 434 373.729 402 c 132,-1,16
 410.815 370 410.815 370 422.444 322 c 132,-1,17
 434.073 274 434.073 274 425.703 217.5 c 132,-1,18
 417.333 161 417.333 161 391.292 112.5 c 132,-1,19
 365.249 64 365.249 64 318.337 32 c 132,-1,20
 271.422 0 271.422 0 214.622 0 c 4,21,22
 157.022 0 157.022 0 119.137 32 c 132,-1,23
 81.25 64 81.25 64 69.6924 112.5 c 132,-1,24
 58.1338 161 58.1338 161 66.9033 217.5 c 132,-1,25
 75.6729 274 75.6729 274 102.044 322 c 132,-1,26
 128.415 370 128.415 370 175.328 402 c 132,-1,27
 222.243 434 222.243 434 279.043 434 c 4,14,15
EndSplineSet
EndChar

StartChar: p
Encoding: 112 112 83
Width: 452
GlyphClass: 2
Flags: W
LayerCount: 2
Fore
SplineSet
434.583 207 m 0,0,1
 425.46 148 425.46 148 400.642 102.5 c 128,-1,2
 375.824 57 375.824 57 342.367 32.5 c 128,-1,3
 308.911 8 308.911 8 272.301 -2 c 128,-1,4
 235.69 -12 235.69 -12 200.561 -3 c 128,-1,5
 165.43 6 165.43 6 140.156 31 c 1,6,-1
 106.63 -201 l 1,7,-1
 34.6299 -201 l 1,8,-1
 122.416 427 l 1,9,-1
 196.816 427 l 1,10,-1
 192.302 395 l 1,11,12
 224.629 420 224.629 420 262.698 429 c 128,-1,13
 300.768 438 300.768 438 334.816 427 c 128,-1,14
 368.865 416 368.865 416 395.198 390 c 128,-1,15
 421.53 364 421.53 364 432.759 316 c 128,-1,16
 443.987 268 443.987 268 434.583 207 c 0,0,1
359.947 211 m 0,17,18
 366.296 256 366.296 256 354.291 290 c 128,-1,19
 342.287 324 342.287 324 318.521 337 c 128,-1,20
 294.755 350 294.755 350 268.284 349.5 c 128,-1,21
 241.813 349 241.813 349 216.239 326.5 c 128,-1,22
 190.667 304 190.667 304 176.365 265 c 0,23,24
 172.931 252 172.931 252 167.03 213 c 128,-1,25
 161.128 174 161.128 174 161.553 160 c 0,26,27
 164.333 123 164.333 123 183.7 101.5 c 128,-1,28
 203.067 80 203.067 80 229.798 79.5 c 128,-1,29
 256.527 79 256.527 79 283.42 91 c 128,-1,30
 310.312 103 310.312 103 332.026 135 c 128,-1,31
 353.74 167 353.74 167 359.947 211 c 0,17,18
EndSplineSet
EndChar

StartChar: q
Encoding: 113 113 84
Width: 454
GlyphClass: 2
Flags: W
LayerCount: 2
Fore
SplineSet
96.54 207 m 0,0,1
 102.088 252 102.088 252 117.448 290 c 128,-1,2
 132.809 328 132.809 328 153.747 354.5 c 128,-1,3
 174.686 381 174.686 381 200.494 399.5 c 128,-1,4
 226.304 418 226.304 418 253.362 425.5 c 128,-1,5
 280.42 433 280.42 433 307.079 432 c 128,-1,6
 333.738 431 333.738 431 356.846 419 c 0,7,8
 381.693 408 381.693 408 390.73 387 c 1,9,-1
 396.373 427 l 1,10,-1
 470.773 427 l 1,11,-1
 381.387 -201 l 1,12,-1
 309.387 -201 l 1,13,-1
 341.313 31 l 1,14,15
 308.986 6 308.986 6 271.317 -3 c 128,-1,16
 233.647 -12 233.647 -12 199.858 -2 c 128,-1,17
 166.068 8 166.068 8 139.524 32.5 c 128,-1,18
 112.981 57 112.981 57 100.999 102.5 c 128,-1,19
 89.0176 148 89.0176 148 96.54 207 c 0,0,1
172.305 211 m 0,20,21
 166.098 167 166.098 167 178.783 135 c 128,-1,22
 191.469 103 191.469 103 214.978 91 c 128,-1,23
 238.484 79 238.484 79 265.354 79.5 c 128,-1,24
 292.226 80 292.226 80 317.658 101.5 c 128,-1,25
 343.091 123 343.091 123 356.31 160 c 0,26,27
 360.686 174 360.686 174 365.787 213 c 128,-1,28
 370.889 252 370.889 252 371.122 265 c 0,29,30
 367.823 304 367.823 304 348.597 326.5 c 128,-1,31
 329.371 349 329.371 349 303.041 349.5 c 128,-1,32
 276.712 350 276.712 350 249.278 337 c 128,-1,33
 221.845 324 221.845 324 200.248 290 c 128,-1,34
 178.652 256 178.652 256 172.305 211 c 0,20,21
EndSplineSet
EndChar

StartChar: r
Encoding: 114 114 85
Width: 309
GlyphClass: 2
Flags: W
LayerCount: 2
Fore
SplineSet
274.604 440 m 0,0,1
 297.805 440 297.805 440 318.371 427 c 1,2,-1
 278.004 345 l 1,3,4
 257.25 351 257.25 351 230.191 343.5 c 128,-1,5
 203.134 336 203.134 336 183.23 314 c 0,6,7
 166.009 294 166.009 294 150.366 262.5 c 128,-1,8
 134.722 231 134.722 231 130.914 204 c 2,9,-1
 101.337 0 l 1,10,-1
 29.3369 0 l 1,11,-1
 89.0527 429 l 1,12,-1
 163.453 429 l 1,13,-1
 150.521 343 l 1,14,-1
 151.462 344 l 1,15,16
 160.118 377 160.118 377 182.962 400 c 128,-1,17
 205.806 423 205.806 423 229.005 431.5 c 128,-1,18
 252.204 440 252.204 440 274.604 440 c 0,0,1
EndSplineSet
EndChar

StartChar: s
Encoding: 115 115 86
Width: 373
GlyphClass: 2
Flags: W
LayerCount: 2
Fore
SplineSet
56.9082 74 m 1,0,-1
 119.771 134 l 1,1,2
 140.906 91 140.906 91 187.119 84 c 0,3,4
 210.554 80 210.554 80 228.836 90.5 c 128,-1,5
 247.117 101 247.117 101 254.174 117 c 128,-1,6
 261.23 133 261.23 133 255.158 149.5 c 128,-1,7
 249.086 166 249.086 166 228.615 174 c 0,8,9
 170.918 196 170.918 196 158.164 202 c 0,10,11
 130.021 218 130.021 218 121.193 249 c 128,-1,12
 112.367 280 112.367 280 117.163 314 c 0,13,14
 119.702 332 119.702 332 128.053 351.5 c 128,-1,15
 136.403 371 136.403 371 151.954 390.5 c 128,-1,16
 167.505 410 167.505 410 195.668 422.5 c 128,-1,17
 223.831 435 223.831 435 259.031 435 c 0,18,19
 326.23 435 326.23 435 352.448 394 c 1,20,-1
 304.22 330 l 1,21,22
 288.97 358 288.97 358 260.075 363 c 0,23,24
 249.956 365 249.956 365 237.204 362.5 c 128,-1,25
 224.452 360 224.452 360 211.3 349 c 128,-1,26
 198.148 338 198.148 338 195.327 318 c 0,27,28
 190.249 282 190.249 282 225.733 267 c 2,29,-1
 262.063 258 l 2,30,31
 300.606 242 300.606 242 317.975 212 c 128,-1,32
 335.343 182 335.343 182 331.958 149.5 c 128,-1,33
 328.574 117 328.574 117 315.683 88 c 128,-1,34
 302.792 59 302.792 59 283.171 39 c 0,35,36
 259.785 15 259.785 15 232.986 6.5 c 128,-1,37
 206.187 -2 206.187 -2 171.646 -3 c 0,38,39
 144.306 -4 144.306 -4 105.338 17.5 c 128,-1,40
 66.3711 39 66.3711 39 56.9082 74 c 1,0,-1
EndSplineSet
EndChar

StartChar: t
Encoding: 116 116 87
Width: 221
GlyphClass: 2
Flags: W
LayerCount: 2
Fore
SplineSet
183.995 422 m 1,0,-1
 222.395 422 l 1,1,-1
 210.545 338 l 1,2,-1
 171.345 338 l 1,3,-1
 123.385 -2 l 1,4,-1
 47.3838 -2 l 1,5,-1
 95.627 340 l 1,6,-1
 61.2275 340 l 1,7,-1
 72.7939 422 l 1,8,-1
 109.595 422 l 1,9,10
 122.571 514 l 1,11,-1
 196.972 514 l 1,12,13
 188.791 456 188.791 456 183.995 422 c 1,0,-1
EndSplineSet
EndChar

StartChar: u
Encoding: 117 117 88
Width: 425
GlyphClass: 2
Flags: W
LayerCount: 2
Fore
SplineSet
78.5537 199 m 4,0,1
 88.4277 269 88.4277 269 94.3291 308 c 132,-1,2
 100.23 347 100.23 347 101.57 356.5 c 132,-1,3
 102.911 366 102.911 366 105.45 384 c 132,-1,4
 107.989 402 107.989 402 111.798 429 c 5,5,-1
 186.998 429 l 5,6,7
 153.425 191 153.425 191 153.284 190 c 4,8,9
 147.783 151 147.783 151 155.127 126.5 c 132,-1,10
 162.471 102 162.471 102 177.812 94.5 c 132,-1,11
 193.155 87 193.155 87 212.73 92.5 c 132,-1,12
 232.307 98 232.307 98 250.963 114 c 132,-1,13
 269.621 130 269.621 130 284.629 157 c 132,-1,14
 299.638 184 299.638 184 304.152 216 c 6,15,-1
 333.397 429 l 5,16,-1
 406.197 429 l 5,17,-1
 346.482 0 l 5,18,-1
 272.083 0 l 5,19,-1
 279.511 64 l 5,20,21
 272.405 59 272.405 59 256.124 40 c 132,-1,22
 239.845 21 239.845 21 231.14 16 c 4,23,24
 203.282 0 203.282 0 176.083 0 c 4,25,26
 106.482 0 106.482 0 85.7471 51.5 c 132,-1,27
 65.0117 103 65.0117 103 78.5537 199 c 4,0,1
EndSplineSet
EndChar

StartChar: v
Encoding: 118 118 89
Width: 428
GlyphClass: 2
Flags: W
LayerCount: 2
Fore
SplineSet
438.161 429 m 1,0,-1
 206.026 -37 l 1,1,-1
 111.479 427 l 1,2,-1
 188.419 428 l 1,3,-1
 237.577 181 l 1,4,-1
 365.502 430 l 1,5,-1
 438.161 429 l 1,0,-1
EndSplineSet
EndChar

StartChar: w
Encoding: 119 119 90
Width: 537
GlyphClass: 2
Flags: W
LayerCount: 2
Fore
SplineSet
338.96 342 m 1,0,-1
 382.884 177 l 1,1,-1
 492.173 430 l 1,2,-1
 565.632 429 l 1,3,-1
 366.343 -31 l 1,4,-1
 313.332 166 l 1,5,-1
 198.343 -31 l 1,6,-1
 126.949 427 l 1,7,-1
 203.891 428 l 1,8,-1
 243.262 174 l 1,9,-1
 338.96 342 l 1,10,-1
 338.96 342 l 1,0,-1
EndSplineSet
EndChar

StartChar: x
Encoding: 120 120 91
Width: 440
GlyphClass: 2
Flags: W
LayerCount: 2
Fore
SplineSet
42.7012 0 m 1,0,-1
 108.62 93 l 1,1,-1
 205.309 234 l 1,2,-1
 165.157 335 l 1,3,-1
 125.334 427 l 1,4,-1
 221.476 428 l 1,5,-1
 253.157 335 l 1,6,-1
 260.735 315 l 1,7,-1
 336.675 428 l 1,8,-1
 421.476 428 l 1,9,-1
 340.548 308 l 1,10,-1
 291.851 235 l 1,11,-1
 336.429 120 l 1,12,-1
 383.36 -1 l 1,13,-1
 298.701 0 l 1,14,-1
 253.182 114 l 1,15,-1
 237.225 154 l 1,16,-1
 196.62 93 l 1,17,-1
 138.701 0 l 1,18,-1
 42.7012 0 l 1,0,-1
EndSplineSet
EndChar

StartChar: y
Encoding: 121 121 92
Width: 418
GlyphClass: 2
Flags: W
LayerCount: 2
Fore
SplineSet
189.84 75 m 1,0,-1
 108.293 427 l 1,1,-1
 185.234 428 l 1,2,-1
 244.793 181 l 1,3,-1
 382.316 430 l 1,4,-1
 454.975 429 l 1,5,-1
 121.448 -200 l 1,6,-1
 35.8477 -200 l 1,7,-1
 189.84 75 l 1,0,-1
EndSplineSet
EndChar

StartChar: z
Encoding: 122 122 93
Width: 400
GlyphClass: 2
Flags: W
LayerCount: 2
Fore
SplineSet
109.303 346 m 1,0,-1
 120.305 424 l 1,1,-1
 402.705 424 l 1,2,-1
 348.079 343 l 1,3,-1
 348.079 343 l 1,4,-1
 177.427 86 l 1,5,-1
 359.826 86 l 1,6,-1
 347.695 0 l 1,7,-1
 37.2949 0 l 1,8,-1
 275.043 347 l 1,9,-1
 109.303 346 l 1,0,-1
EndSplineSet
EndChar

StartChar: braceleft
Encoding: 123 123 94
Width: 242
GlyphClass: 2
Flags: W
LayerCount: 2
Fore
SplineSet
111.149 144 m 0,0,1
 103.161 42 103.161 42 161.851 -24 c 1,2,-1
 146.052 -136 l 1,3,4
 89.0127 -98 89.0127 -98 58.7686 -26 c 128,-1,5
 28.5244 46 28.5244 46 35.5723 147 c 0,6,7
 35.7129 148 35.7129 148 37.3125 156.5 c 128,-1,8
 38.9111 165 38.9111 165 40.9336 176.5 c 128,-1,9
 42.9561 188 42.9561 188 44.4121 204 c 128,-1,10
 45.8691 220 45.8691 220 45.9854 235 c 128,-1,11
 46.1016 250 46.1016 250 44.2881 265.5 c 128,-1,12
 42.4736 281 42.4736 281 38.0264 292 c 128,-1,13
 33.5781 303 33.5781 303 25.0361 310.5 c 128,-1,14
 16.4932 318 16.4932 318 3.69336 318 c 1,15,16
 27.6934 318 27.6934 318 44.8438 346 c 128,-1,17
 61.9932 374 61.9932 374 69.1182 407.5 c 128,-1,18
 76.2441 441 76.2441 441 80.5469 471.5 c 128,-1,19
 84.8486 502 84.8486 502 85.6494 502 c 1,20,21
 105.214 601 105.214 601 155.818 670.5 c 128,-1,22
 206.422 740 206.422 740 275.358 775 c 1,23,-1
 260.829 672 l 1,24,25
 186.106 613 186.106 613 161.272 505 c 0,26,27
 161.131 504 161.131 504 156.499 474 c 128,-1,28
 151.867 444 151.867 444 144.742 410.5 c 128,-1,29
 137.616 377 137.616 377 120.396 348.5 c 128,-1,30
 103.176 320 103.176 320 79.1758 320 c 1,31,32
 91.9756 320 91.9756 320 100.918 312.5 c 128,-1,33
 109.859 305 109.859 305 113.837 293.5 c 128,-1,34
 117.815 282 117.815 282 119.958 266 c 128,-1,35
 122.102 250 122.102 250 121.515 234.5 c 128,-1,36
 120.929 219 120.929 219 119.401 202.5 c 128,-1,37
 117.873 186 117.873 186 116.252 174.5 c 128,-1,38
 114.629 163 114.629 163 113.359 154 c 0,39,40
 111.289 145 111.289 145 111.149 144 c 0,0,1
111.149 144 m 0,41,-1
EndSplineSet
EndChar

StartChar: bar
Encoding: 124 124 95
Width: 186
GlyphClass: 2
Flags: W
LayerCount: 2
Fore
SplineSet
125.812 238 m 5,0,-1
 90.6396 0 l 5,1,-1
 16.2402 0 l 5,2,-1
 114.56 697 l 5,3,-1
 189.76 697 l 5,4,-1
 125.812 238 l 5,0,-1
EndSplineSet
EndChar

StartChar: braceright
Encoding: 125 125 96
Width: 226
GlyphClass: 2
Flags: W
LayerCount: 2
Fore
SplineSet
38.3857 144 m 4,0,1
 38.5264 145 38.5264 145 39.7969 154 c 0,40,41
 40.2656 163 40.2656 163 41.8877 174.5 c 128,-1,39
 43.5098 186 43.5098 186 46.6377 202.5 c 128,-1,38
 49.7656 219 49.7656 219 53.5508 234.5 c 128,-1,37
 57.3379 250 57.3379 250 63.5947 266 c 128,-1,36
 69.8516 282 69.8516 282 77.4736 293.5 c 128,-1,35
 85.0967 305 85.0967 305 96.1543 312.5 c 128,-1,34
 107.212 320 107.212 320 120.012 320 c 1,32,33
 96.0117 320 96.0117 320 86.4326 348.5 c 128,-1,31
 76.8525 377 76.8525 377 79.5781 410.5 c 128,-1,30
 82.3047 444 82.3047 444 86.1357 474 c 128,-1,29
 89.9678 504 89.9678 504 90.1094 505 c 0,27,28
 95.7432 613 95.7432 613 37.666 672 c 1,25,26
 52.1953 775 l 1,24,-1
 111.259 740 111.259 740 142.255 670.5 c 128,-1,23
 173.251 601 173.251 601 164.886 502 c 0,21,22
 164.744 501 164.744 501 161.454 472 c 0,19,20
 157.081 441 157.081 441 154.756 407.5 c 128,-1,18
 152.429 374 152.429 374 161.681 346 c 128,-1,17
 170.93 318 170.93 318 194.93 318 c 1,15,16
 182.13 318 182.13 318 171.473 310.5 c 128,-1,14
 160.814 303 160.814 303 153.263 292 c 128,-1,13
 145.711 281 145.711 281 139.125 265.5 c 128,-1,12
 132.538 250 132.538 250 128.822 235 c 128,-1,11
 125.105 220 125.105 220 122.049 204 c 128,-1,10
 118.992 188 118.992 188 117.77 176.5 c 128,-1,9
 116.548 165 116.548 165 115.749 156.5 c 128,-1,8
 114.95 148 114.95 148 114.809 147 c 0,6,7
 93.3613 46 93.3613 46 42.8047 -26 c 128,-1,5
 -7.75098 -98 -7.75098 -98 -75.5117 -136 c 1,3,4
 -59.7129 -24 l 1,2,-1
 17.5977 42 17.5977 42 38.3857 144 c 4,0,1
38.3857 144 m 0,42,-1
EndSplineSet
EndChar

StartChar: asciitilde
Encoding: 126 126 97
Width: 449
GlyphClass: 2
Flags: W
LayerCount: 2
Fore
SplineSet
279.411 559 m 1,0,1
 283.036 545 283.036 545 294.024 543.5 c 128,-1,2
 305.013 542 305.013 542 313.693 552.5 c 128,-1,3
 322.375 563 322.375 563 318.75 577 c 1,4,5
 318.891 578 l 1,6,7
 318.232 579 l 1,8,-1
 354.512 598 l 1,9,-1
 354.371 597 l 1,10,11
 358.984 573 358.984 573 352.023 552 c 128,-1,12
 345.061 531 345.061 531 329.039 519.5 c 128,-1,13
 313.017 508 313.017 508 296.052 504 c 128,-1,14
 279.088 500 279.088 500 264.357 509 c 128,-1,15
 249.627 518 249.627 518 244.589 539 c 1,16,-1
 279.411 559 l 1,0,1
244.589 539 m 1,17,18
 240.964 553 240.964 553 229.976 554.5 c 128,-1,19
 218.987 556 218.987 556 210.307 545.5 c 128,-1,20
 201.625 535 201.625 535 205.25 521 c 1,21,22
 205.109 520 l 1,23,24
 205.768 519 l 1,25,-1
 169.488 500 l 1,26,-1
 169.629 501 l 1,27,28
 165.016 525 165.016 525 171.977 546 c 128,-1,29
 178.939 567 178.939 567 194.961 578.5 c 128,-1,30
 210.983 590 210.983 590 227.948 594 c 128,-1,31
 244.912 598 244.912 598 259.643 589 c 128,-1,32
 274.373 580 274.373 580 279.411 559 c 1,33,-1
 244.589 539 l 1,17,18
EndSplineSet
EndChar

StartChar: exclamdown
Encoding: 161 161 98
Width: 213
GlyphClass: 2
Flags: W
LayerCount: 2
Fore
SplineSet
33.7578 1 m 1,0,-1
 91.167 442 l 1,3,-1
 163.967 442 l 1,2,-1
 105.758 1 l 1,1,-1
 33.7578 1 l 1,0,-1
107.051 634 m 0,4,5
 111 662 111 662 127.657 678 c 128,-1,13
 144.314 694 144.314 694 161.914 694 c 128,-1,12
 179.515 694 179.515 694 191.587 677.5 c 128,-1,11
 203.658 661 203.658 661 199.568 632 c 0,9,10
 195.76 605 195.76 605 179.244 590 c 128,-1,8
 162.728 575 162.728 575 145.197 575.5 c 128,-1,7
 127.669 576 127.669 576 115.454 591.5 c 128,-1,6
 103.241 607 103.241 607 107.051 634 c 0,4,5
EndSplineSet
EndChar

StartChar: yen
Encoding: 165 165 99
Width: 548
GlyphClass: 2
Flags: W
LayerCount: 2
Fore
SplineSet
83.1797 200 m 1,0,-1
 483.979 200 l 1,1,-1
 469.966 112 l 1,2,-1
 69.166 112 l 1,3,-1
 83.1797 200 l 1,0,-1
106.171 380 m 1,4,-1
 506.971 380 l 1,5,-1
 496.158 292 l 1,6,-1
 95.3574 292 l 1,7,-1
 106.171 380 l 1,4,-1
126.981 692 m 1,8,-1
 211.782 692 l 1,9,-1
 318.73 418 l 1,10,-1
 499.782 692 l 1,11,-1
 584.582 692 l 1,12,-1
 346.882 334 l 1,13,-1
 300.19 3 l 1,14,-1
 214.968 0 l 1,15,-1
 267.118 330 l 1,16,-1
 267.918 330 l 1,17,-1
 126.981 692 l 1,8,-1
EndSplineSet
EndChar

StartChar: dieresis
Encoding: 168 168 100
Width: 638
GlyphClass: 2
Flags: W
LayerCount: 2
Fore
SplineSet
196.867 805 m 4,0,1
 200.677 832 200.677 832 217.333 848 c 132,-1,2
 233.991 864 233.991 864 251.591 864 c 132,-1,3
 269.19 864 269.19 864 281.474 849 c 132,-1,4
 293.759 834 293.759 834 289.95 807 c 4,5,6
 285.859 778 285.859 778 269.131 761.5 c 132,-1,7
 252.403 745 252.403 745 234.804 745 c 132,-1,8
 217.203 745 217.203 745 205.062 761 c 132,-1,9
 192.918 777 192.918 777 196.867 805 c 4,0,1
394.562 800 m 4,10,11
 398.371 827 398.371 827 415.027 843 c 132,-1,12
 431.686 859 431.686 859 449.285 859 c 132,-1,13
 466.885 859 466.885 859 479.169 844 c 132,-1,14
 491.453 829 491.453 829 487.645 802 c 4,15,16
 483.554 773 483.554 773 466.827 756.5 c 132,-1,17
 450.098 740 450.098 740 432.498 740 c 132,-1,18
 414.898 740 414.898 740 402.756 756 c 132,-1,19
 390.612 772 390.612 772 394.562 800 c 4,10,11
EndSplineSet
EndChar

StartChar: guillemotleft
Encoding: 171 171 101
Width: 534
GlyphClass: 2
Flags: W
LayerCount: 2
Fore
SplineSet
425.893 428 m 5,0,-1
 413.621 341 l 5,1,-1
 343.744 288 l 5,2,-1
 397.821 229 l 5,3,-1
 385.785 138 l 5,4,-1
 243.886 289 l 5,5,-1
 425.893 428 l 5,0,-1
260.575 430 m 5,6,-1
 248.444 344 l 5,7,-1
 178.427 290 l 5,8,-1
 232.645 232 l 5,9,-1
 220.468 140 l 5,10,-1
 77.9082 292 l 5,11,-1
 260.575 430 l 5,6,-1
EndSplineSet
EndChar

StartChar: degree
Encoding: 176 176 102
Width: 504
GlyphClass: 2
Flags: W
LayerCount: 2
Fore
SplineSet
261.384 802 m 4,0,1
 259.127 786 259.127 786 267.812 779.5 c 132,-1,2
 276.494 773 276.494 773 287.411 779.5 c 132,-1,3
 298.327 786 298.327 786 300.726 803 c 4,4,5
 302.842 818 302.842 818 293.759 824.5 c 132,-1,6
 284.675 831 284.675 831 274.088 824 c 132,-1,7
 263.501 817 263.501 817 261.384 802 c 4,0,1
224.444 801 m 4,8,9
 228.958 833 228.958 833 249.025 850.5 c 132,-1,10
 269.095 868 269.095 868 289.613 866 c 132,-1,11
 310.131 864 310.131 864 325.191 846 c 132,-1,12
 340.252 828 340.252 828 336.162 799 c 4,13,14
 331.788 768 331.788 768 311.579 749.5 c 132,-1,15
 291.37 731 291.37 731 270.428 730 c 132,-1,16
 249.486 729 249.486 729 234.567 748 c 132,-1,17
 219.648 767 219.648 767 224.444 801 c 4,8,9
EndSplineSet
EndChar

StartChar: plusminus
Encoding: 177 177 103
Width: 441
GlyphClass: 2
Flags: W
LayerCount: 2
Fore
SplineSet
358.471 127 m 1,0,-1
 48.0703 127 l 1,1,-1
 60.7656 217 l 1,2,-1
 371.308 218 l 1,3,-1
 358.471 127 l 1,0,-1
397.02 474 m 1,4,-1
 288.078 473 l 1,5,-1
 267.014 318 l 1,6,-1
 194.214 318 l 1,7,-1
 216.078 473 l 1,8,-1
 103.137 472 l 1,9,-1
 115.832 562 l 1,10,-1
 230.092 561 l 1,11,-1
 248.286 707 l 1,12,-1
 320.286 707 l 1,13,-1
 299.974 563 l 1,14,-1
 409.715 564 l 1,15,-1
 397.02 474 l 1,4,-1
EndSplineSet
EndChar

StartChar: uni00B2
Encoding: 178 178 104
Width: 372
GlyphClass: 2
Flags: W
LayerCount: 2
Fore
SplineSet
146.884 525 m 1,0,-1
 296.413 723 l 2,1,2
 322.856 763 322.856 763 323.229 794 c 128,-1,3
 323.601 825 323.601 825 297.53 833 c 0,4,5
 284.494 837 284.494 837 266.025 828 c 128,-1,6
 247.556 819 247.556 819 238.993 798 c 1,7,-1
 211.319 823 l 1,8,9
 239.878 878 239.878 878 295.596 876 c 0,10,11
 335.455 875 335.455 875 351.716 848.5 c 128,-1,12
 367.979 822 367.979 822 357.371 778 c 128,-1,13
 346.765 734 346.765 734 311.853 685 c 2,14,-1
 226.831 570 l 1,15,-1
 336.571 571 l 1,16,-1
 330.083 525 l 1,17,-1
 186.884 525 l 1,18,-1
 146.884 525 l 1,0,-1
EndSplineSet
EndChar

StartChar: uni00B3
Encoding: 179 179 105
Width: 354
GlyphClass: 2
Flags: W
LayerCount: 2
Fore
SplineSet
268.692 730 m 1,0,1
 287.656 734 287.656 734 300.054 759.5 c 128,-1,2
 312.45 785 312.45 785 306.754 807 c 0,3,4
 301.576 827 301.576 827 280.821 833 c 0,5,6
 266.187 837 266.187 837 248.681 832 c 128,-1,7
 231.176 827 231.176 827 220.637 809 c 1,8,-1
 193.621 833 l 1,9,10
 224.487 876 224.487 876 281.005 874 c 0,11,12
 306.605 874 306.605 874 323.619 858.5 c 128,-1,13
 340.633 843 340.633 843 345.059 820.5 c 128,-1,14
 349.484 798 349.484 798 341.535 770 c 128,-1,15
 333.585 742 333.585 742 312.741 719 c 1,16,17
 333.686 686 333.686 686 334.537 649.5 c 128,-1,18
 335.388 613 335.388 613 320.239 585 c 128,-1,19
 305.089 557 305.089 557 278.809 538 c 128,-1,20
 252.528 519 252.528 519 222.929 519 c 0,21,22
 179.447 517 179.447 517 140.996 545 c 1,23,-1
 168.992 579 l 1,24,25
 182.264 571 182.264 571 193.699 567 c 128,-1,26
 205.135 563 205.135 563 213.135 563 c 128,-1,27
 221.135 563 221.135 563 230.735 563 c 0,28,29
 259.535 563 259.535 563 278.144 590 c 128,-1,30
 296.753 617 296.753 617 294.325 648 c 128,-1,31
 291.898 679 291.898 679 267.049 690 c 1,32,-1
 230.391 691 l 1,33,-1
 234.951 729 l 1,34,-1
 268.692 730 l 1,0,1
EndSplineSet
EndChar

StartChar: acute
Encoding: 180 180 106
Width: 876
GlyphClass: 2
Flags: W
LayerCount: 2
Fore
SplineSet
429.425 985 m 1,0,-1
 468.727 912 l 1,1,-1
 330.059 791 l 1,2,-1
 296.688 838 l 1,3,-1
 429.425 985 l 1,0,-1
EndSplineSet
EndChar

StartChar: uni00B9
Encoding: 185 185 107
Width: 266
GlyphClass: 2
Flags: W
LayerCount: 2
Fore
SplineSet
189.62 786 m 1,0,-1
 177.246 772 l 1,1,-1
 156.396 800 l 1,2,-1
 218.883 863 l 1,3,-1
 242.691 890 l 1,4,-1
 235.31 832 l 1,5,-1
 235.31 832 l 1,6,-1
 198.21 569 l 1,7,-1
 199.011 569 l 1,8,-1
 193.509 530 l 1,9,-1
 154.309 530 l 1,10,-1
 159.811 569 l 1,11,-1
 189.62 786 l 1,0,-1
EndSplineSet
EndChar

StartChar: guillemotright
Encoding: 187 187 108
Width: 529
GlyphClass: 2
Flags: W
LayerCount: 2
Fore
SplineSet
92.8789 428 m 1,0,-1
 235.672 289 l 1,5,-1
 51.1709 138 l 1,4,-1
 64.8076 229 l 1,3,-1
 135.53 288 l 1,2,-1
 80.6074 341 l 1,1,-1
 92.8789 428 l 1,0,-1
258.762 430 m 5,6,-1
 402.494 292 l 1,11,-1
 217.054 140 l 1,10,-1
 230.831 232 l 1,9,-1
 301.413 290 l 1,8,-1
 246.631 344 l 1,7,-1
 258.762 430 l 5,6,-1
EndSplineSet
EndChar

StartChar: questiondown
Encoding: 191 191 109
Width: 486
GlyphClass: 2
Flags: W
LayerCount: 2
Fore
SplineSet
246.176 77 m 0,0,1
 270.976 77 270.976 77 289.917 86.5 c 128,-1,2
 308.856 96 308.856 96 320.031 110 c 128,-1,3
 331.206 124 331.206 124 345.463 140 c 1,4,-1
 369.33 71 l 1,5,6
 338.652 35 338.652 35 304.184 17.5 c 128,-1,7
 269.715 0 269.715 0 224.914 0 c 0,8,9
 153.715 0 153.715 0 118.768 50 c 128,-1,10
 83.8203 100 83.8203 100 95.3877 182 c 0,11,12
 101.171 223 101.171 223 120.579 258.5 c 128,-1,13
 139.987 294 139.987 294 178.711 336 c 2,14,-1
 218.519 380 l 2,15,16
 253.761 420 253.761 420 261.853 440.5 c 128,-1,17
 269.944 461 269.944 461 277.279 513 c 2,18,-1
 281.277 530 l 1,19,-1
 359.582 535 l 1,20,-1
 354.128 502 l 2,21,22
 345.946 444 345.946 444 328.491 411 c 128,-1,23
 311.036 378 311.036 378 275.135 339 c 2,24,-1
 234.245 293 l 2,25,26
 226.576 284 226.576 284 218.248 276 c 128,-1,27
 209.919 268 209.919 268 202.037 257.5 c 128,-1,28
 194.157 247 194.157 247 187.547 237 c 128,-1,29
 180.936 227 180.936 227 176.113 215.5 c 128,-1,30
 171.291 204 171.291 204 170.398 192 c 0,31,32
 156.576 77 156.576 77 246.176 77 c 0,0,1
388.647 690 m 0,33,34
 384.839 663 384.839 663 368.252 647.5 c 128,-1,35
 351.666 632 351.666 632 333.995 631.5 c 128,-1,36
 316.325 631 316.325 631 304.04 646 c 128,-1,37
 291.757 661 291.757 661 295.564 688 c 0,38,39
 299.656 717 299.656 717 316.383 733.5 c 128,-1,40
 333.111 750 333.111 750 350.711 750 c 128,-1,41
 368.312 750 368.312 750 380.454 734 c 128,-1,42
 392.597 718 392.597 718 388.647 690 c 0,33,34
EndSplineSet
EndChar

StartChar: Odieresis
Encoding: 214 214 127
Width: 724
GlyphClass: 2
Flags: W
LayerCount: 2
Fore
SplineSet
332.468 -3 m 0
EndSplineSet
Refer: 50 79 N 1 0 0 1 0 0 2
Refer: 100 168 S 1 0 0 1 76.8 0 2
EndChar

StartChar: multiply
Encoding: 215 215 128
Width: 444
GlyphClass: 2
Flags: W
LayerCount: 2
Fore
SplineSet
387.136 457 m 1,0,-1
 296.652 360 l 1,1,-1
 369.276 251 l 1,2,-1
 309.049 187 l 1,3,-1
 236.424 296 l 1,4,-1
 143.919 196 l 1,5,-1
 101.746 260 l 1,6,-1
 196.794 361 l 1,7,-1
 126.899 461 l 1,8,-1
 187.127 525 l 1,9,-1
 254.339 423 l 1,10,-1
 344.963 521 l 1,11,-1
 387.136 457 l 1,0,-1
EndSplineSet
EndChar

StartChar: germandbls
Encoding: 223 223 130
Width: 457
GlyphClass: 2
Flags: W
LayerCount: 2
Fore
SplineSet
99.0137 0 m 5,0,-1
 69.4141 0 l 1,47,-1
 69.5547 1 l 1,46,-1
 30.2139 0 l 1,45,-1
 127.264 688 l 1,44,-1
 287.264 688 l 1,43,-1
 289.382 686 l 1,42,-1
 325.522 687 325.522 687 351.854 669.5 c 128,-1,41
 378.187 652 378.187 652 390.636 624 c 128,-1,40
 403.087 596 403.087 596 404.879 560.5 c 128,-1,39
 406.671 525 406.671 525 397.616 492 c 128,-1,38
 388.561 459 388.561 459 367.271 430 c 128,-1,37
 345.979 401 345.979 401 315.863 386 c 1,35,36
 315.062 386 315.062 386 314.853 384.5 c 128,-1,34
 314.641 383 314.641 383 315.44 383 c 0,32,33
 351.958 381 351.958 381 374.597 351.5 c 128,-1,31
 397.235 322 397.235 322 402.771 279 c 128,-1,30
 408.305 236 408.305 236 398.522 186.5 c 128,-1,29
 388.739 137 388.739 137 365.615 95 c 128,-1,28
 342.489 53 342.489 53 301.881 26 c 128,-1,27
 261.272 -1 261.272 -1 211.955 1 c 2,25,26
 203.814 0 l 1,24,-1
 130.214 0 l 1,23,-1
 143.615 95 l 1,22,-1
 235.615 95 l 2,21,-1
 266.814 95 266.814 95 290.199 119 c 128,-1,20
 313.586 143 313.586 143 321.722 178 c 128,-1,19
 329.859 213 329.859 213 327.926 247.5 c 128,-1,18
 325.992 282 325.992 282 307.92 307 c 128,-1,17
 289.846 332 289.846 332 260.388 333 c 1,15,16
 260.527 334 l 1,14,-1
 177.328 334 l 1,13,-1
 187.203 404 l 1,12,-1
 198.403 404 198.403 404 221.414 405.5 c 128,-1,11
 244.426 407 244.426 407 246.825 407 c 0,9,10
 276.331 412 276.331 412 297.905 434.5 c 128,-1,8
 319.479 457 319.479 457 326.841 486.5 c 128,-1,7
 334.201 516 334.201 516 331.892 545 c 128,-1,6
 329.584 574 329.584 574 311.604 594 c 128,-1,5
 293.625 614 293.625 614 264.166 615 c 1,3,4
 264.308 616 l 1,2,-1
 186.708 616 l 1,1,-1
 99.0137 0 l 5,0,-1
  Spiro
    69.4137 0 v
    69.5547 1 v
    30.2137 0 v
    127.264 688 v
    287.264 688 v
    289.382 686 v
    323.071 682.375 o
    351.854 669.5 o
    374.716 649.375 o
    390.636 624 o
    400.422 594.125 o
    404.879 560.5 o
    403.959 525.625 o
    397.616 492 o
    385.502 460 o
    367.27 430 o
    343.773 404.5 o
    315.864 386 v
    315.211 385.625 o
    314.852 384.5 o
    314.893 383.375 o
    315.44 383 o
    348.488 374.125 o
    374.596 351.5 o
    392.96 318.625 o
    402.77 279 o
    404.475 234.375 o
    398.522 186.5 o
    385.404 138.875 o
    365.615 95 o
    338.119 56.75 o
    301.881 26 o
    259.096 6.25 o
    211.955 1 [
    203.814 0 v
    130.214 0 v
    143.615 95 v
    235.615 95 ]
    264.861 101 o
    290.2 119 o
    309.773 145.75 o
    321.723 178 o
    327.342 212.875 o
    327.926 247.5 o
    321.958 279.625 o
    307.92 307 o
    287 326 o
    260.387 333 v
    260.528 334 v
    177.328 334 v
    187.203 404 v
    201.356 404.375 o
    221.414 405.5 o
    239.272 406.625 o
    246.826 407 o
    274.348 416.375 o
    297.905 434.5 o
    315.926 458.75 o
    326.84 486.5 o
    331.784 515.875 o
    331.892 545 o
    325.665 571.75 o
    311.604 594 o
    290.756 609.25 o
    264.167 615 v
    264.308 616 v
    186.708 616 v
    99.0137 0 v
    0 0 z
  EndSpiro
EndSplineSet
EndChar

StartChar: dotlessi
Encoding: 305 305 165
Width: 186
GlyphClass: 2
Flags: W
LayerCount: 2
Fore
SplineSet
99.0811 433 m 1,0,-1
 172.682 433 l 1,1,-1
 111.318 -2 l 1,2,-1
 39.3184 -2 l 1,3,-1
 99.0811 433 l 1,0,-1
EndSplineSet
EndChar

StartChar: jcircumflex
Encoding: 309 309 167
Width: 189
GlyphClass: 2
Flags: W
LayerCount: 2
Fore
SplineSet
89.5684 430 m 1,10,-1
 163.169 430 l 1,11,-1
 87.3242 -102 l 1,12,-1
 14.5244 -102 l 1,13,-1
 89.5684 430 l 1,10,-1
EndSplineSet
Refer: 65 94 S 1 0 0 1 -120.937 -35 2
EndChar

StartChar: uni030A
Encoding: 778 778 174
Width: 138
GlyphClass: 2
Flags: W
LayerCount: 2
Fore
SplineSet
57.3369 791 m 256,0,1
 55.0801 775 55.0801 775 63.7637 768.5 c 128,-1,2
 72.4463 762 72.4463 762 83.4336 769 c 128,-1,3
 94.4219 776 94.4219 776 96.6777 792 c 0,4,5
 98.7939 807 98.7939 807 89.7109 813.5 c 128,-1,6
 80.6279 820 80.6279 820 70.1113 813.5 c 128,-1,7
 59.5938 807 59.5938 807 57.3369 791 c 256,0,1
20.3965 790 m 0,8,9
 25.0508 823 25.0508 823 45.0498 840 c 128,-1,10
 65.0469 857 65.0469 857 85.5654 855 c 128,-1,11
 106.083 853 106.083 853 121.144 835 c 128,-1,12
 136.205 817 136.205 817 132.114 788 c 0,13,14
 127.74 757 127.74 757 107.532 738.5 c 128,-1,15
 87.3223 720 87.3223 720 66.4512 719.5 c 128,-1,16
 45.5811 719 45.5811 719 30.5898 737.5 c 128,-1,17
 15.6006 756 15.6006 756 20.3965 790 c 0,8,9
EndSplineSet
EndChar

StartChar: Delta
Encoding: 916 916 175
Width: 593
GlyphClass: 2
Flags: W
LayerCount: 2
Fore
SplineSet
369.304 731 m 1,0,-1
 389.127 639 l 1,1,-1
 525.529 1 l 1,2,-1
 449.529 1 l 1,3,-1
 380.588 0 l 1,4,-1
 160.588 0 l 1,5,-1
 95.9287 1 l 1,6,-1
 19.9287 1 l 1,7,-1
 334.725 656 l 1,8,-1
 369.304 731 l 1,0,-1
434.556 82 m 1,9,-1
 339.494 514 l 1,10,-1
 139.355 82 l 1,11,-1
 434.556 82 l 1,9,-1
EndSplineSet
EndChar

StartChar: beta
Encoding: 946 946 176
Width: 457
GlyphClass: 2
Flags: W
LayerCount: 2
Fore
SplineSet
90.5498 -120 m 5,0,-1
 60.9502 -120 l 1,47,-1
 61.0908 -119 l 1,46,-1
 21.75 -120 l 1,45,-1
 135.728 688 l 1,44,-1
 295.728 688 l 1,43,-1
 297.846 686 l 1,42,-1
 333.986 687 333.986 687 360.318 669.5 c 128,-1,41
 386.65 652 386.65 652 399.1 624 c 128,-1,40
 411.55 596 411.55 596 413.342 560.5 c 128,-1,39
 415.135 525 415.135 525 406.08 492 c 128,-1,38
 397.024 459 397.024 459 375.734 430 c 128,-1,37
 354.442 401 354.442 401 324.327 386 c 1,35,36
 323.526 386 323.526 386 323.315 384.5 c 128,-1,34
 323.104 383 323.104 383 323.903 383 c 0,32,33
 360.422 381 360.422 381 383.061 351.5 c 128,-1,31
 405.699 322 405.699 322 411.233 279 c 128,-1,30
 416.768 236 416.768 236 406.986 186.5 c 128,-1,29
 397.203 137 397.203 137 374.078 95 c 128,-1,28
 350.954 53 350.954 53 310.346 26 c 128,-1,27
 269.736 -1 269.736 -1 220.419 1 c 2,25,26
 212.277 0 l 1,24,-1
 138.677 0 l 1,23,-1
 152.078 95 l 1,22,-1
 244.078 95 l 2,21,-1
 275.278 95 275.278 95 298.664 119 c 128,-1,20
 322.049 143 322.049 143 330.187 178 c 128,-1,19
 338.323 213 338.323 213 336.39 247.5 c 128,-1,18
 334.456 282 334.456 282 316.384 307 c 128,-1,17
 298.31 332 298.31 332 268.851 333 c 1,15,16
 268.991 334 l 1,14,-1
 185.792 334 l 1,13,-1
 195.666 404 l 1,12,-1
 206.866 404 206.866 404 229.878 405.5 c 128,-1,11
 252.89 407 252.89 407 255.289 407 c 0,9,10
 284.795 412 284.795 412 306.368 434.5 c 128,-1,8
 327.942 457 327.942 457 335.304 486.5 c 128,-1,7
 342.665 516 342.665 516 340.355 545 c 128,-1,6
 338.047 574 338.047 574 320.067 594 c 128,-1,5
 302.089 614 302.089 614 272.63 615 c 1,3,4
 272.771 616 l 1,2,-1
 195.172 616 l 1,1,-1
 90.5498 -120 l 5,0,-1
EndSplineSet
EndChar

StartChar: quoteleft
Encoding: 8216 8216 177
Width: 165
GlyphClass: 2
Flags: W
LayerCount: 2
Fore
SplineSet
112.649 620 m 1,0,1
 112.369 601 112.369 601 100.324 586.5 c 128,-1,2
 88.2783 572 88.2783 572 74.8438 567.5 c 128,-1,3
 61.4092 563 61.4092 563 51.1016 575 c 128,-1,4
 40.7949 587 40.7949 587 42.4854 616 c 0,5,6
 46.4326 661 46.4326 661 71.3936 699 c 128,-1,7
 96.3545 737 96.3545 737 119.224 746 c 1,8,9
 108.166 730 108.166 730 102.289 694 c 128,-1,10
 96.4092 658 96.4092 658 104.176 645 c 1,11,12
 114.625 634 114.625 634 112.649 620 c 1,0,1
EndSplineSet
EndChar

StartChar: quoteright
Encoding: 8217 8217 178
Width: 170
GlyphClass: 2
Flags: W
LayerCount: 2
Fore
SplineSet
70.6572 682 m 0,0,1
 70.1367 701 70.1367 701 81.124 716.5 c 128,-1,2
 92.1104 732 92.1104 732 105.286 737.5 c 128,-1,3
 118.462 743 118.462 743 129.71 732 c 128,-1,4
 140.958 721 140.958 721 141.009 693 c 0,5,6
 139.602 649 139.602 649 116.76 609 c 128,-1,7
 93.916 569 93.916 569 72.3652 558 c 1,8,9
 81.8223 574 81.8223 574 85.4414 611 c 128,-1,10
 89.0615 648 89.0615 648 80.0713 658 c 0,11,12
 69.4824 668 69.4824 668 70.6572 682 c 0,0,1
EndSplineSet
EndChar

StartChar: quotedblleft
Encoding: 8220 8220 179
Width: 261
GlyphClass: 2
Flags: W
LayerCount: 2
Fore
SplineSet
223.391 622 m 0,0,1
 222.452 604 222.452 604 210.735 589 c 128,-1,2
 199.02 574 199.02 574 185.256 570 c 128,-1,3
 171.492 566 171.492 566 161.184 578 c 128,-1,4
 150.877 590 150.877 590 152.427 618 c 0,5,6
 157.174 663 157.174 663 181.734 701 c 128,-1,7
 206.295 739 206.295 739 229.164 748 c 1,8,9
 218.248 733 218.248 733 212.699 696.5 c 128,-1,10
 207.151 660 207.151 660 214.258 648 c 1,11,12
 224.706 637 224.706 637 223.391 622 c 0,0,1
124.709 620 m 1,13,14
 124.429 601 124.429 601 112.383 586.5 c 128,-1,15
 100.338 572 100.338 572 86.9023 567.5 c 128,-1,16
 73.4678 563 73.4678 563 63.1611 575 c 128,-1,17
 52.8535 587 52.8535 587 54.5439 616 c 0,18,19
 58.4922 661 58.4922 661 83.4521 699 c 128,-1,20
 108.412 737 108.412 737 131.282 746 c 1,21,22
 120.226 730 120.226 730 114.347 694 c 128,-1,23
 108.469 658 108.469 658 116.235 645 c 1,24,25
 126.684 634 126.684 634 124.709 620 c 1,13,14
EndSplineSet
EndChar

StartChar: quotedblright
Encoding: 8221 8221 180
Width: 321
GlyphClass: 2
Flags: W
LayerCount: 2
Fore
SplineSet
192.432 685 m 1,0,1
 191.771 703 191.771 703 202.828 719 c 128,-1,2
 213.885 735 213.885 735 226.99 740 c 128,-1,3
 240.096 745 240.096 745 251.415 734.5 c 128,-1,4
 262.733 724 262.733 724 262.784 696 c 0,5,6
 261.236 651 261.236 651 238.464 611.5 c 128,-1,7
 215.691 572 215.691 572 194 560 c 1,8,9
 203.456 576 203.456 576 207.075 613 c 128,-1,10
 210.694 650 210.694 650 201.847 661 c 0,11,12
 191.257 671 191.257 671 192.432 685 c 1,0,1
84.0088 682 m 0,13,14
 83.4883 701 83.4883 701 94.4756 716.5 c 128,-1,15
 105.462 732 105.462 732 118.638 737.5 c 128,-1,16
 131.814 743 131.814 743 143.062 732 c 128,-1,17
 154.311 721 154.311 721 154.36 693 c 0,18,19
 152.953 649 152.953 649 130.111 609 c 128,-1,20
 107.27 569 107.27 569 85.7178 558 c 1,21,22
 95.1738 574 95.1738 574 98.793 611 c 128,-1,23
 102.413 648 102.413 648 93.4229 658 c 0,24,25
 82.834 668 82.834 668 84.0088 682 c 0,13,14
EndSplineSet
EndChar

StartChar: Euro
Encoding: 8364 8364 182
Width: 645
Flags: W
LayerCount: 2
Fore
SplineSet
521.671 293 m 1,0,-1
 486.104 211 l 1,1,-1
 74.9043 211 l 1,2,-1
 110.471 293 l 1,3,-1
 521.671 293 l 1,0,-1
586.122 455 m 1,4,-1
 549.238 375 l 1,5,-1
 102.838 375 l 1,6,-1
 134.923 455 l 1,7,-1
 586.122 455 l 1,4,-1
658.76 641 m 0,10,11
 624.512 557 l 1,14,15
 618.573 578.065 618.573 578.065 583.754 597 c 0,16,17
 556.759 611.679 556.759 611.679 506.951 614 c 0,18,19
 442.575 617 442.575 617 374.675 569.5 c 128,-1,20
 306.774 522 306.774 522 267.113 445 c 0,21,22
 214.184 342 214.184 342 230.218 243 c 128,-1,23
 246.253 144 246.253 144 322.683 96 c 0,24,25
 360.096 72 360.096 72 404.755 71 c 128,-1,26
 449.414 70 449.414 70 491.553 88 c 128,-1,27
 533.692 106 533.692 106 575.288 140 c 1,28,-1
 561.323 41 l 1,29,30
 520.481 1 520.481 1 494.764 -5.5 c 128,-1,31
 469.047 -12 469.047 -12 422.152 -15.5 c 128,-1,32
 375.26 -19 375.26 -19 335.117 -11.5 c 128,-1,33
 294.976 -4 294.976 -4 270.974 13 c 0,34,35
 169.931 85 169.931 85 151.256 213.5 c 128,-1,36
 132.583 342 132.583 342 205.272 483 c 0,37,38
 259.284 588 259.284 588 345.136 646.5 c 128,-1,40
 430.83 704.893 430.83 704.893 519.883 700 c 0,8,9
 565.779 697.771 565.779 697.771 617.581 669.5 c 4,0,0
 645.465 654.5 645.465 654.5 658.76 641 c 0,10,11
EndSplineSet
EndChar

StartChar: brokenbar
Encoding: 166 166 187
Width: 186
Flags: W
LayerCount: 2
Fore
SplineSet
66.8457 315 m 1,0,-1
 134.046 315 l 1,1,-1
 92.0107 0 l 1,2,-1
 22.4111 0 l 1,3,-1
 66.8457 315 l 1,0,-1
121.389 696 m 5,4,-1
 188.589 696 l 1,5,-1
 144.201 387 l 1,6,-1
 77.002 387 l 5,7,-1
 121.389 696 l 5,4,-1
EndSplineSet
EndChar

